<svg height="464pt" viewBox="0 0 464 464.00608" width="464pt" xmlns="http://www.w3.org/2000/svg"><path d="m216.394531 112.582031c-10.714843-7.449219-24.003906-10.210937-36.800781-7.65625-13.945312 2.71875-25.917969 11.59375-32.566406 24.152344l-24.800782 47.351563-27.710937-35.015626c-15.054687-18.757812-40.757813-25.191406-62.871094-15.734374-16.414062 6.753906-28.144531 21.546874-30.984375 39.066406-2.839844 17.519531 3.617188 35.257812 17.054688 46.851562l55.710937 51.609375c14.945313 13.753907 35.566407 19.53125 55.480469 15.550781 17.292969-3.375 32.359375-13.894531 41.480469-28.96875l35.550781-59.3125 44.96875 29.601563 93.082031-18.472656zm0 0" fill="#e69112"/><path d="m304.644531 294.636719c6.894531-7.988281 12.425781-17.058594 16.367188-26.847657 8.128906-20.222656 15.878906-40.589843 25.289062-60.253906l45.6875-95.527344-40-40-95.527343 45.6875c-19.664063 9.40625-40 17.160157-60.257813 25.285157-9.789063 3.941406-18.863281 9.472656-26.847656 16.371093l-1.367188.65625.3125.308594c-26.710937 23.632813-38.101562 60.132813-29.574219 94.757813 8.527344 34.628906 35.5625 61.664062 70.191407 70.191406 34.628906 8.527344 71.125-2.863281 94.757812-29.570313l.3125.3125zm0 0" fill="#eb972a"/><path d="m445.21875 32.597656c-6.726562-1.839844-11.984375-7.097656-13.824219-13.824218-2.507812-9.984376-10.894531-17.398438-21.113281-18.664063-6.734375-.648437-13.429688 1.578125-18.433594 6.128906-5.007812 4.550781-7.863281 11.003907-7.859375 17.769531v.132813c.394531 9.339844-2.992187 18.445313-9.394531 25.257813l-22.605469 22.609374 40 40 22.605469-22.609374c6.8125-6.402344 15.917969-9.789063 25.257812-9.390626h.136719c6.765625 0 13.214844-2.855468 17.765625-7.859374 4.550782-5.007813 6.777344-11.703126 6.128906-18.4375-1.265624-10.21875-8.679687-18.605469-18.664062-21.113282zm0 0" fill="#f0dbc2"/><path d="m210.84375 181.917969-50.855469-45.910157 40-40v-95.9999995l-119.609375 108.0624995c-9.695312 9-15.203125 21.628907-15.199218 34.855469.007812 14.507813 6.640624 28.21875 18.007812 37.230469l43.199219 34.347656-41.28125 20.238282c-18.253907 8.96875-29.839844 27.523437-29.886719 47.863281-.050781 20.34375 11.445312 38.949219 29.660156 48.007812 18.214844 9.054688 39.988282 6.996094 56.179688-5.320312l63.871094-44.550781c15.867187-11.011719 25.804687-28.695313 26.960937-47.972657 1.15625-19.277343-6.59375-38.023437-21.03125-50.851562zm0 0" fill="#f09e3e"/><path d="m359.988281 328.007812h-112c-26.511719 0-48-21.492187-48-48v-64c0-35.347656 28.652344-64 64-64h153.375c12.496094 0 22.625 10.128907 22.625 22.621094 0 6-2.382812 11.757813-6.625 16l-9.375 9.378906v64c0 35.34375-28.65625 64-64 64zm0 0" fill="#ffb433"/><path d="m410.746094 464.007812h-357.519532l-37.238281-240h432zm0 0" fill="#f05d46"/><g fill="#fc3"><path d="m23.988281 168.007812h16v16h-16zm0 0"/><path d="m143.988281 80.007812h16v16h-16zm0 0"/><path d="m103.988281 120.007812h16v16h-16zm0 0"/><path d="m143.988281 168.007812h16v16h-16zm0 0"/><path d="m271.988281 176.007812h16v16h-16zm0 0"/><path d="m335.988281 184.007812h16v16h-16zm0 0"/><path d="m311.988281 112.007812h16v16h-16zm0 0"/></g><path d="m61.433594 289.324219 15.78125-2.632813 10.664062 64-15.78125 2.628906zm0 0" fill="#ff8b78"/><path d="m56.097656 257.320312 15.785156-2.628906 2.664063 16.003906-15.785156 2.628907zm0 0" fill="#ff8b78"/><path d="m47.066406 424.308594 6.160156 39.699218h357.519532l37.242187-240h-61.144531c-93.632812 130.445313-263.410156 182.710938-339.777344 200.300782zm0 0" fill="#e3523b"/></svg>