<svg xmlns="http://www.w3.org/2000/svg" viewBox="0 0 726.03 537.95"><defs><style>.cls-1,.cls-4{fill:#fff;}.cls-2{fill:#345f2a;}.cls-11,.cls-12,.cls-13,.cls-14,.cls-15,.cls-16,.cls-17,.cls-18,.cls-19,.cls-2,.cls-20,.cls-21,.cls-22,.cls-23,.cls-24,.cls-25,.cls-26,.cls-27,.cls-28,.cls-29,.cls-30,.cls-31,.cls-32,.cls-33,.cls-34,.cls-35,.cls-36,.cls-37,.cls-38,.cls-39,.cls-4,.cls-40,.cls-41,.cls-42,.cls-43,.cls-44,.cls-45,.cls-46,.cls-47,.cls-48,.cls-49,.cls-5,.cls-50,.cls-52,.cls-53,.cls-54,.cls-7,.cls-8,.cls-9{fill-rule:evenodd;}.cls-3,.cls-7{fill:#080a00;}.cls-5{fill:#731819;}.cls-10,.cls-51,.cls-6{fill:none;}.cls-6{stroke:#080a00;stroke-linejoin:round;stroke-width:4.12px;}.cls-8{fill:#282c16;}.cls-9{fill:#28451f;}.cls-10{stroke:#731819;stroke-width:0.12px;}.cls-10,.cls-51{stroke-miterlimit:22.93;}.cls-11{fill:#ecce1f;}.cls-12{fill:#dfa71e;}.cls-13{fill:#e2b782;}.cls-14{fill:#cbd5de;}.cls-15{fill:#cb9e6e;}.cls-16{fill:#b6b5b4;}.cls-17{fill:#f2f3f3;}.cls-18{fill:#f9fbfb;}.cls-19{fill:#daa922;}.cls-20{fill:#e3b986;}.cls-21{fill:#22351b;}.cls-22{fill:#1f190e;}.cls-23{fill:#e4b8bb;}.cls-24{fill:#e2b5bc;}.cls-25{fill:#c79768;}.cls-26{fill:#ca6259;}.cls-27{fill:#c9645c;}.cls-28{fill:#1b160d;}.cls-29{fill:#b5251b;}.cls-30{fill:#b02e2d;}.cls-31{fill:#fefefe;}.cls-32{fill:#11130c;}.cls-33{fill:#e3b8bc;}.cls-34{fill:#e3bbba;}.cls-35{fill:#ab2a1e;}.cls-36{fill:#74a046;}.cls-37{fill:#2a1f0f;}.cls-38{fill:#7a181a;}.cls-39{fill:#fafafb;}.cls-40{fill:#5b1d48;}.cls-41{fill:#fbfcfd;}.cls-42{fill:#3f1e16;}.cls-43{fill:#c86e69;}.cls-44{fill:#747471;}.cls-45{fill:#c76562;}.cls-46{fill:#14120b;}.cls-47{fill:#f7f3ba;}.cls-48{fill:#9e9b99;}.cls-49{fill:#14150e;}.cls-50{fill:#c7996d;}.cls-51{stroke:#27241f;stroke-width:1.29px;}.cls-52{fill:#e2b1b4;}.cls-53{fill:#c5acce;}.cls-54{fill:#cad3da;}.cls-55{fill:#c02830;}.cls-56{fill:#211915;}</style></defs><title>logoSuPizza</title><g id="Capa_2" data-name="Capa 2"><g id="Layer_1" data-name="Layer 1"><path class="cls-1" d="M723.44,405.45l-23.72-31.19,19.51-53.15a12.71,12.71,0,0,0-17.42-15.83c-7.84,3.77-16.17,7.46-24.86,11a64.34,64.34,0,0,0-47.69-23.15,24.62,24.62,0,0,0,2.91-11.38,25.28,25.28,0,0,0-1.63-10,20.16,20.16,0,0,0-3.45-5.65,12.69,12.69,0,0,0,3.58-9.72l-.41-5.35a12.58,12.58,0,0,0-3.45-7.64,12.61,12.61,0,0,0,1.24-8l-.89-5a12.57,12.57,0,0,0-2.56-5.58l0-.1a29.28,29.28,0,0,0-.88-10.34l-2.4-10.39a12.6,12.6,0,0,0-2.28-4.81,12.61,12.61,0,0,0-.6-3.29l-6-17.57a12.76,12.76,0,0,0-2.35-4.12,12.52,12.52,0,0,0-.86-2.73l-7.61-16.69a12.64,12.64,0,0,0-2.18-3.21,12.68,12.68,0,0,0-1.08-2.49l-9.13-15.91a12.54,12.54,0,0,0-2.95-3.45,12.39,12.39,0,0,0-1.58-3.12l-2.95-4.12a12.68,12.68,0,0,0-4.34-3.74c-.19-.59-.35-1.19-.59-1.77-.88-2.07-2.32-4.27-5.13-7.83l-5-6.38a12.69,12.69,0,0,0-17.83-2.13l-18.74,14.73c-1.35-1.42-2.67-2.87-4.06-4.25,12.54-12.69,16.21-32.49,8.2-50.32C529.73,50.7,526,47.25,518.56,41l-1.08-.91c-4-3.39-14.85-10.82-23-13.46-12.78-4.16-31-8.68-49.61-3.77a44.85,44.85,0,0,0-8.7-6.93,100.37,100.37,0,0,0-19.25-9.5c-14.78-5.63-33-7.7-50.1-5.69a84.41,84.41,0,0,0-23.33,5.68l-.79.31a66.74,66.74,0,0,0-10.16,4.62c-2.75,1.68-4.52,2.74-5.74,3.46a33.78,33.78,0,0,0-6.55,4.65c-.87.74-2.13,1.83-4.22,3.56-3.5,2.9-8.11,9.37-8.16,9.44a36.66,36.66,0,0,0-6.6,15.76A237.45,237.45,0,0,0,191.67,108.7c-1.63,0-3.26-.06-4.91-.06C129,108.64,79.45,123.36,60,146.21a23,23,0,0,0-4.1,5.19l0,0a25,25,0,0,0-1.48,3.08,36.25,36.25,0,0,0-2.29,5.62,32.11,32.11,0,0,0-1.39,27.41c5.27,13.24,20.82,21.89,27.25,25a177.06,177.06,0,0,0,46.91,14.67,238.62,238.62,0,0,0-6,53.06c0,4.19.12,8.48.36,12.81H87.62A64.11,64.11,0,0,0,41.23,313c-6-2.58-11.68-5.16-17-7.72A12.71,12.71,0,0,0,6.8,321.11l16.64,45.32V378L2.59,405.45a12.68,12.68,0,0,0,4.62,19.13c4.89,2.35,10.16,4.74,16.23,7.35V470a64.25,64.25,0,0,0,64.18,64.18H278.29c28,2.5,56.5,3.76,84.73,3.76s56.72-1.26,84.71-3.76H627.65A64.25,64.25,0,0,0,691.83,470V436.53c9.41-3.85,18.46-7.86,27-11.94a12.7,12.7,0,0,0,4.62-19.14Z"/><path class="cls-2" d="M357.63,54.23c124.84,0,226,101.2,226,226s-101.2,226-226,226-226-101.2-226-226,101.2-226,226-226"/><path class="cls-3" d="M602.36,270.93l.35,4.95a6,6,0,0,0-3.68,1.69,5.42,5.42,0,0,0-1.26,3.63,5.65,5.65,0,0,0,.93,3.69,3.11,3.11,0,0,0,2.38,1.31,2.35,2.35,0,0,0,1.53-.48,4.06,4.06,0,0,0,1.13-1.79c.23-.58.63-1.91,1.21-4a13.66,13.66,0,0,1,2.64-5.61,6.64,6.64,0,0,1,8.69-1,6.72,6.72,0,0,1,2.45,3.19,12.19,12.19,0,0,1,.74,4.94q-.12,4.69-2.28,7a7.42,7.42,0,0,1-5.64,2.35l0-5.08a4.36,4.36,0,0,0,2.83-1.31,5,5,0,0,0,.94-3.15,5.7,5.7,0,0,0-.82-3.45,1.84,1.84,0,0,0-1.54-.84,1.89,1.89,0,0,0-1.54.71q-.84.93-1.82,4.59a24.1,24.1,0,0,1-1.95,5.39,7,7,0,0,1-2.62,2.69,7.48,7.48,0,0,1-4,.89,7.33,7.33,0,0,1-4-1.31,7.09,7.09,0,0,1-2.7-3.46,14.14,14.14,0,0,1-.77-5.47q.13-4.75,2.4-7.24a9.47,9.47,0,0,1,6.46-2.86m.63-11.6,9-4.18-9.5-2.67Zm-9.21,10-.42-5.45,5.53-2.59-.76-10-5.85-1.65-.41-5.35,25.73,7.8.41,5.35ZM590,237.1l24.68-4.38.88,5-24.67,4.38Zm9.81-22.81.84,3.65A19.4,19.4,0,0,0,602,222.3a2.68,2.68,0,0,0,1.35,1.14,3.35,3.35,0,0,0,2,.08,3,3,0,0,0,1.84-1.12,3.09,3.09,0,0,0,.53-2.08c0-.41-.28-1.62-.74-3.62l-.89-3.84Zm-15.23-1.7L609,207l2.4,10.38a18.17,18.17,0,0,1,.65,5.85,5.72,5.72,0,0,1-1.68,3.38,7.16,7.16,0,0,1-3.6,2,6.66,6.66,0,0,1-4.91-.56,8,8,0,0,1-3.37-4.29,11.26,11.26,0,0,1-1.44,3.1,28.27,28.27,0,0,1-3.32,3.71l-4.08,4.08-1.36-5.9,4.52-4.76a35.36,35.36,0,0,0,3-3.44,3.9,3.9,0,0,0,.67-1.72,8.26,8.26,0,0,0-.31-2.55l-.23-1-10.2,2.35Zm-7.81-22,23.73-8.06,6,17.57-4,1.36-4.34-12.76-5.27,1.79,4,11.87-4,1.36-4-11.87L582.39,194l4.49,13.23-4,1.36Zm-10-21.38,4.14-1.89,20.29,5.27-4.86-10.65,3.86-1.76,7.61,16.69-3.57,1.63L573.11,173,579,186l-3.86,1.76ZM555.8,150.76l4-2.26,20.69,3.35-5.82-10.15,3.67-2.11,9.13,15.91-3.4,2L562.53,154l7.08,12.35-3.67,2.11Zm-4.66-6.15L571.5,130l3,4.12L554.1,148.73Zm5.43-27.29L551,121.73l1.7,2.17a12.72,12.72,0,0,0,2.78,2.89,3.15,3.15,0,0,0,1.94.47,3.6,3.6,0,0,0,3.18-2.78,3.54,3.54,0,0,0-.38-2.29,23.54,23.54,0,0,0-2.11-3Zm-19.51,8.89,19.7-15.5,5,6.38a29.48,29.48,0,0,1,3.42,5,6.58,6.58,0,0,1,.3,4.35,7.79,7.79,0,0,1-2.94,4.16A8.2,8.2,0,0,1,559,132.3a7,7,0,0,1-3.26-.14,7.44,7.44,0,0,1-2.55-1.33,29.18,29.18,0,0,1-3.52-3.89l-2-2.59-7.43,5.85Z"/><path class="cls-2" d="M87.62,305.79h540a51.63,51.63,0,0,1,51.48,51.47V470a51.64,51.64,0,0,1-51.48,51.48h-540A51.64,51.64,0,0,1,36.14,470V357.26a51.63,51.63,0,0,1,51.48-51.47"/><path class="cls-4" d="M86.31,320.13H629a36.37,36.37,0,0,1,36.27,36.27V470.88A36.37,36.37,0,0,1,629,507.15H86.31A36.37,36.37,0,0,1,50,470.88V356.4a36.37,36.37,0,0,1,36.27-36.27"/><path class="cls-4" d="M357.63,71.8c115.14,0,208.48,93.33,208.48,208.47S472.77,488.75,357.63,488.75,149.16,395.41,149.16,280.27,242.5,71.8,357.63,71.8"/><path class="cls-5" d="M439.92,38.06l.19.77-1.29-.16-.59-.06a4.64,4.64,0,0,0-3.64,1.09c-12,8.13-14,9.62-30.12,13.17-17.87,4-27.69,1.71-33.39,2.56-4.17.62-5,9.92-11.94,1.71-2.87-3.38.12-3.44-4.55-4.37.16,7.84-.75,12.73-4.63,17.59-5,6.29-7.77,7.41-12.1,8.78-3.43,1.09,2.39-1.65-.93.37,1,.94,1.11,1,3.42,1,3.38,18.88-8.71,30.82-26.94,30.38-7.5-.18-.94-1.41-8,.31-.62-2.57-3.45-2.49-6-3.34-3.78-1.23-4.23-1.76-7.11-3.54-4.2-2.62-10.36-6.41-9.57-12.22l-.88,2.15c-.09.37-.32,1.88-.38,2.21-1.4,7.68-.3,17.8,3.82,23.35.82,1.09,1.6,2.17,2.55,3.3a30.6,30.6,0,0,0,8.5,7.37c7.79,4.65,16.86,7.18,26.28,8.16,3.66.38,7.35,0,11,.22l8.94-1.32c10.21-1.43,21.63-9.2,27.35-18.11,3.72-5.79-3.54-11.84-5.18-16.08.93-1.09-.24-.36,1.77-.51l-1.32-1.62c1.43-3,8.45-7.37,12.26-9.25,14.64-7.21,40.57-8.13,56.41-3.51,2.14.62,6.6,1.88,8.22,2.49,2.41.91,2.87,3.53,3.51,7.64l3.8,20.61c.09,1.16.12,1.26.24,2.34l.81,15.8a69.62,69.62,0,0,1-.57,10.11c-.25,1.4-.51,2.91-.8,4.52-.45,2.47-.31,3.31-2.4,3.26.53.64.12.26.89.83,2.25,1.67,8,4.8,10.29,7.31.19.22,1.44,1.63,1.57,1.7.84.51.19.3,1.14.39s.84,0,1.38-.19c2.29-2,.73-37.7-.28-45.58-.48-3.7-2.65-10.27-2.21-12.61l1,1.12c-.17-2.06-.22-.61.62-1,12.78,6.12,35.88,7.56,49.18.24,15.11-8.32,19.26-26.4,12.53-41.37-3.8-8.45-6.24-10.21-13.45-16.31-3.6-3-13-9.22-18.71-11.07C474.18,33.39,456.15,30.37,439.92,38.06Zm.19.77c2.32.42,4.89-.86,7.18-1.41,1.88-.45,4.8-.8,7.34-1.17A61.23,61.23,0,0,1,477.78,38c1.84.53,5.12,1,6.71,1.65L496.28,45c-1.9,24.09-34.5,18-51.5,10.47-3.65-1.61-11.52-6.67-12.47-12.06,1.39-1.69,4.41-2.53,6-3.38l1.41-.89C439.82,38.92,440,38.93,440.11,38.83Z"/><path class="cls-6" d="M439.92,38.06l.19.77-1.29-.16-.59-.06a4.64,4.64,0,0,0-3.64,1.09c-12,8.13-14,9.62-30.12,13.17-17.87,4-27.69,1.71-33.39,2.56-4.17.62-5,9.92-11.94,1.71-2.87-3.38.12-3.44-4.55-4.37.16,7.84-.75,12.73-4.63,17.59-5,6.29-7.77,7.41-12.1,8.78-3.43,1.09,2.39-1.65-.93.37,1,.94,1.11,1,3.42,1,3.38,18.88-8.71,30.82-26.94,30.38-7.5-.18-.94-1.41-8,.31-.62-2.57-3.45-2.49-6-3.34-3.78-1.23-4.23-1.76-7.11-3.54-4.2-2.62-10.36-6.41-9.57-12.22l-.88,2.15c-.09.37-.32,1.88-.38,2.21-1.4,7.68-.3,17.8,3.82,23.35.82,1.09,1.6,2.17,2.55,3.3a30.6,30.6,0,0,0,8.5,7.37c7.79,4.65,16.86,7.18,26.28,8.16,3.66.38,7.35,0,11,.22l8.94-1.32c10.21-1.43,21.63-9.2,27.35-18.11,3.72-5.79-3.54-11.84-5.18-16.08.93-1.09-.24-.36,1.77-.51l-1.32-1.62c1.43-3,8.45-7.37,12.26-9.25,14.64-7.21,40.57-8.13,56.41-3.51,2.14.62,6.6,1.88,8.22,2.49,2.41.91,2.87,3.53,3.51,7.64l3.8,20.61c.09,1.16.12,1.26.24,2.34l.81,15.8a69.62,69.62,0,0,1-.57,10.11c-.25,1.4-.51,2.91-.8,4.52-.45,2.47-.31,3.31-2.4,3.26.53.64.12.26.89.83,2.25,1.67,8,4.8,10.29,7.31.19.22,1.44,1.63,1.57,1.7.84.51.19.3,1.14.39s.84,0,1.38-.19c2.29-2,.73-37.7-.28-45.58-.48-3.7-2.65-10.27-2.21-12.61l1,1.12c-.17-2.06-.22-.61.62-1,12.78,6.12,35.88,7.56,49.18.24,15.11-8.32,19.26-26.4,12.53-41.37-3.8-8.45-6.24-10.21-13.45-16.31-3.6-3-13-9.22-18.71-11.07C474.18,33.39,456.15,30.37,439.92,38.06Zm.19.77c2.32.42,4.89-.86,7.18-1.41,1.88-.45,4.8-.8,7.34-1.17A61.23,61.23,0,0,1,477.78,38c1.84.53,5.12,1,6.71,1.65L496.28,45c-1.9,24.09-34.5,18-51.5,10.47-3.65-1.61-11.52-6.67-12.47-12.06,1.39-1.69,4.41-2.53,6-3.38l1.41-.89C439.82,38.92,440,38.93,440.11,38.83Z"/><path class="cls-7" d="M312.45,59.87c-.26,2.63.71,5.82,1.61,8.15.63,1.61,0,0,.54,1.17A20.29,20.29,0,0,0,319.1,76a18.07,18.07,0,0,0,6.69,4.69c2.2.86,6.87,2.39,9.5,1,3.49-2.12-2.63.75,1-.39,4.55-1.44,7.44-2.62,12.7-9.21,4.08-5.1,5-10.24,4.86-18.46,4.9,1,1.77,1,4.78,4.59,7.28,8.61,8.15-1.15,12.53-1.8,6-.89,16.28,1.45,35-2.69C423,50.06,425.22,48.5,437.77,40a4.91,4.91,0,0,1,3.82-1.14l.63.06,1.35.17-.21-.81c-3.39.67-4.89-6-13.79-11.46a87.48,87.48,0,0,0-17.15-8.47c-13-5-29.05-6.72-44.08-4.94a71.43,71.43,0,0,0-20.21,4.9,65.45,65.45,0,0,0-8.94,3.93c-11.91,7.28-5.91,3.06-15,10.62a52.56,52.56,0,0,0-5.88,7c-4.89,6.94-4.35,11.05-5.82,20.08"/><path class="cls-8" d="M360.58,96.84c103.92,0,188.16,84.24,188.16,188.15S464.5,473.15,360.58,473.15,172.43,388.91,172.43,285,256.67,96.84,360.58,96.84"/><path class="cls-4" d="M358.76,99.2A181.86,181.86,0,1,1,176.9,281.06,181.86,181.86,0,0,1,358.76,99.2"/><path class="cls-4" d="M186.77,121.34c68.17,0,123.43,21.67,123.43,48.4s-55.26,48.4-123.43,48.4S63.34,196.47,63.34,169.74s55.26-48.4,123.43-48.4"/><path class="cls-9" d="M439.92,38.06l.19.77-1.29-.16-.59-.06a4.64,4.64,0,0,0-3.64,1.09c-12,8.13-14,9.62-30.12,13.17-17.87,4-27.69,1.71-33.39,2.56-4.17.62-5,9.92-11.94,1.71-2.87-3.38.12-3.44-4.55-4.37.16,7.84-.75,12.73-4.63,17.59-5,6.29-7.77,7.41-12.1,8.78-3.43,1.09,2.39-1.65-.93.37,1,.94,1.11,1,3.42,1,3.38,18.88-8.71,30.82-26.94,30.38-7.5-.18-.94-1.41-8,.31-.62-2.57-3.45-2.49-6-3.34-3.78-1.23-4.23-1.76-7.11-3.54-4.2-2.62-10.36-6.41-9.57-12.22l-.88,2.15c-.09.37-.32,1.88-.38,2.21-1.4,7.68-.3,17.8,3.82,23.35.82,1.09,1.6,2.17,2.55,3.3a30.6,30.6,0,0,0,8.5,7.37c7.79,4.65,16.86,7.18,26.28,8.16,3.66.38,7.35,0,11,.22l8.94-1.32c10.21-1.43,21.63-9.2,27.35-18.11,3.72-5.79-3.54-11.84-5.18-16.08.93-1.09-.24-.36,1.77-.51l-1.32-1.62c1.43-3,8.45-7.37,12.26-9.25,14.64-7.21,40.57-8.13,56.41-3.51,2.14.62,6.6,1.88,8.22,2.49,2.41.91,2.87,3.53,3.51,7.64l3.8,20.61c.09,1.16.12,1.26.24,2.34l.81,15.8a69.62,69.62,0,0,1-.57,10.11c-.25,1.4-.51,2.91-.8,4.52-.45,2.47-.31,3.31-2.4,3.26.53.64.12.26.89.83,2.25,1.67,8,4.8,10.29,7.31.19.22,1.44,1.63,1.57,1.7.84.51.19.3,1.14.39s.84,0,1.38-.19c2.29-2,.73-37.7-.28-45.58-.48-3.7-2.65-10.27-2.21-12.61l1,1.12c-.17-2.06-.22-.61.62-1,12.78,6.12,35.88,7.56,49.18.24,15.11-8.32,19.26-26.4,12.53-41.37-3.8-8.45-6.24-10.21-13.45-16.31-3.6-3-13-9.22-18.71-11.07C474.18,33.39,456.15,30.37,439.92,38.06Zm.19.77c2.32.42,4.89-.86,7.18-1.41,1.88-.45,4.8-.8,7.34-1.17A61.23,61.23,0,0,1,477.78,38c1.84.53,5.12,1,6.71,1.65L496.28,45c-1.9,24.09-34.5,18-51.5,10.47-3.65-1.61-11.52-6.67-12.47-12.06,1.39-1.69,4.41-2.53,6-3.38l1.41-.89C439.82,38.92,440,38.93,440.11,38.83Z"/><path class="cls-10" d="M439.92,38.06l.19.77-1.29-.16-.59-.06a4.64,4.64,0,0,0-3.64,1.09c-12,8.13-14,9.62-30.12,13.17-17.87,4-27.69,1.71-33.39,2.56-4.17.62-5,9.92-11.94,1.71-2.87-3.38.12-3.44-4.55-4.37.16,7.84-.75,12.73-4.63,17.59-5,6.29-7.77,7.41-12.1,8.78-3.43,1.09,2.39-1.65-.93.37,1,.94,1.11,1,3.42,1,3.38,18.88-8.71,30.82-26.94,30.38-7.5-.18-.94-1.41-8,.31-.62-2.57-3.45-2.49-6-3.34-3.78-1.23-4.23-1.76-7.11-3.54-4.2-2.62-10.36-6.41-9.57-12.22l-.88,2.15c-.09.37-.32,1.88-.38,2.21-1.4,7.68-.3,17.8,3.82,23.35.82,1.09,1.6,2.17,2.55,3.3a30.6,30.6,0,0,0,8.5,7.37c7.79,4.65,16.86,7.18,26.28,8.16,3.66.38,7.35,0,11,.22l8.94-1.32c10.21-1.43,21.63-9.2,27.35-18.11,3.72-5.79-3.54-11.84-5.18-16.08.93-1.09-.24-.36,1.77-.51l-1.32-1.62c1.43-3,8.45-7.37,12.26-9.25,14.64-7.21,40.57-8.13,56.41-3.51,2.14.62,6.6,1.88,8.22,2.49,2.41.91,2.87,3.53,3.51,7.64l3.8,20.61c.09,1.16.12,1.26.24,2.34l.81,15.8a69.62,69.62,0,0,1-.57,10.11c-.25,1.4-.51,2.91-.8,4.52-.45,2.47-.31,3.31-2.4,3.26.53.64.12.26.89.83,2.25,1.67,8,4.8,10.29,7.31.19.22,1.44,1.63,1.57,1.7.84.51.19.3,1.14.39s.84,0,1.38-.19c2.29-2,.73-37.7-.28-45.58-.48-3.7-2.65-10.27-2.21-12.61l1,1.12c-.17-2.06-.22-.61.62-1,12.78,6.12,35.88,7.56,49.18.24,15.11-8.32,19.26-26.4,12.53-41.37-3.8-8.45-6.24-10.21-13.45-16.31-3.6-3-13-9.22-18.71-11.07C474.18,33.39,456.15,30.37,439.92,38.06Zm.19.77c2.32.42,4.89-.86,7.18-1.41,1.88-.45,4.8-.8,7.34-1.17A61.23,61.23,0,0,1,477.78,38c1.84.53,5.12,1,6.71,1.65L496.28,45c-1.9,24.09-34.5,18-51.5,10.47-3.65-1.61-11.52-6.67-12.47-12.06,1.39-1.69,4.41-2.53,6-3.38l1.41-.89C439.82,38.92,440,38.93,440.11,38.83Z"/><path class="cls-2" d="M315.17,58.67c-.25,2.51.67,5.55,1.53,7.77.6,1.53,0,0,.51,1.11a19.5,19.5,0,0,0,4.29,6.52,17.32,17.32,0,0,0,6.38,4.47c2.09.82,6.55,2.28,9.05,1,3.32-2-2.5.72.93-.37,4.33-1.37,7.08-2.49,12.1-8.78,3.88-4.86,4.79-9.75,4.63-17.59,4.67.93,1.68,1,4.55,4.37,6.95,8.21,7.77-1.09,11.94-1.71,5.7-.85,15.52,1.39,33.39-2.56,16.07-3.55,18.16-5,30.12-13.17a4.64,4.64,0,0,1,3.64-1.09l.59.06,1.29.16-.19-.77c-3.24.64-4.67-5.75-13.14-10.92a82.94,82.94,0,0,0-16.35-8.07c-12.4-4.73-27.68-6.41-42-4.71A68.2,68.2,0,0,0,349.17,19a62.32,62.32,0,0,0-8.53,3.76c-11.34,6.93-5.63,2.91-14.32,10.11a49.78,49.78,0,0,0-5.61,6.65c-4.66,6.61-4.14,10.52-5.54,19.13"/><path class="cls-2" d="M366.49,102.89c.33,1.53,1.93,2.56,2.93,4a38.1,38.1,0,0,1,6.81,16.61c1.07,7.75.18,21.06-4.4,25.56-2.72,5.48-4.75,3.32-6.75,8.19-1.7,4.14-1.45,9.32-.19,13.63l1.3,1.27c.24-5.9.54-11.5,2.38-16.83,1.17-3.37,1.71-2.91,4.72-4.75,2.63-1.61,4.53-1.58,6.6-2.94-.08-.06-.07-.35-.06-.28s-1.83-.88,6.49-2.85c14.94-3.52,30.73,1.12,34,.82,1.31-.12,2-.65,3.89-.4,3.45.45,4.41,2.84,7.22,3.93l15.19,6.45c2.09.05,2-.79,2.4-3.26.29-1.61.55-3.12.8-4.52a69.62,69.62,0,0,0,.57-10.11l-.81-15.8c-.12-1.08-.15-1.18-.24-2.34l-3.8-20.61c-.64-4.11-1.1-6.73-3.51-7.64-1.62-.61-6.08-1.87-8.22-2.49C418,83.89,392.07,84.81,377.43,92c-3.81,1.88-10.83,6.3-12.26,9.25Z"/><path class="cls-11" d="M157.7,136.52c11.5-8.86,12,1.49,29.78-2.16-1.55,4.95-7.66,3.48-13.16,3.47-1.78,1.48-1.29,2.28-3.76,3.27a18.53,18.53,0,0,1-5.29,1c-4.41.08-7.73-1.1-7.57-5.6"/><path class="cls-11" d="M230.82,143.31c.45,6.69-2.62,7.9-6.56,10.58-6,4.07-5.5,3.18-5.46,11-5.36-2.08-8.67-7.73-3-12,7.57-5.75,5.9-2.43,11.36-9-9.54-1.15-7.47-5.68-4.7-7.21,4.75-2.64,8.06-1.27,11.25,1.24.31,3.53-.8,3.86-2.86,5.42"/><path class="cls-11" d="M175.38,147c-2.17-.87-5.53-4.73,5.31-4.84s7.65,4,5.31,4.85l-1-3.14c-4.26.4-1.68,3-1.14,5.2l-5.73-.1c.3-2.34,2.43-5-1.59-5.06-.62,1.21-.22.84-.44,1.52l-.47,1.19c0-.08-.12.27-.21.38"/><path class="cls-11" d="M196.13,137.67a24.93,24.93,0,0,1,15,2.19c5.18,2.59,5.44,7.52-1.24,8.77-5.59,1-11.8.32-16-2.11-5.86-3.37-5.24-7.44,2.26-8.85"/><path class="cls-11" d="M103.09,181.76c1.47,3,21.28,9.24,24.25,10.11,8.77,2.57,13.25,2.95,22,3.27,3.85.14,4.31,1.09,7.47,1.69,11.12,2.13,37,1,46.51-2.78s28.29,5.12,36.35-2.58h0l2.75-.28c9.87-2.31,12.3-2.1,21.84-6.81,2.45-1.2,4.95-3.58,5.73-3.82,5.21-1.64,12.16,1.82,28.85-9.38a45.82,45.82,0,0,0,4.89-4.67c1.51-1.5,3.42-3.31,2.65-5.88l-.29-.76-.16-.39-.15-.39c-1.1-2.76-6.7-8.78-7.38-9.27-3.52-2.5-7.43-5.7-11.39-7.66L280.51,139c-1.11-1.32-10.38-3.3-13.8-3.22-2.44.06-4.29.93-5.85-.45-.74.85-2.12,1.32-3.32,2-2.22,1.24-1.66,1.37-4,.54-2.91-1-5.71-1.88-8.75-3-2.64-1-16.22-5.35-17.07-6.25-.64,0-18.51-5.25-24.8-6.08-5.77-.76-18.36-1.07-21.81,4.17l-1.5,2.72-1.56-.51c-1.74.72-13.2-1.46-17-1.54a80.2,80.2,0,0,0-33.16,6.08c-2.27,1-4.16,2.35-6.6,3.49-2.94,1.38-3.55,3.05-7,3.15-14.49.42-20.7,2.29-32,7.86a43.47,43.47,0,0,0-11.49,8.16c-4,4.38-4.27,7.75-2.88,14.77,0,3,2.35,5.78,4.07,7.6,1.16,3.27,2.8,4.23,5.27,6,2.31,1.7,3.9,4,7.26,4.52a25.8,25.8,0,0,0,7.57,3.6c3.24-.91.57-.05,2.1-.84s2.93-2.52,4.24-3.8c.93-.9,1.51-1.47,2.41-2.36,1.85-1.82,1.49-1.25,2.16-3.85"/><path class="cls-11" d="M268.27,153.93c.13,8.54-16.42,6.84-12.74-.76-.91-2.59-6.18-4.4-2-8.78,1.9-2,6.91-2.52,10.42-2.1,11.15,1.35,11.64,9.12,4.33,11.64"/><path class="cls-12" d="M260.86,135.31c1.56,1.38,3.41.51,5.85.45,3.42-.08,12.69,1.9,13.8,3.22l6.55,3.18c4,2,7.87,5.16,11.39,7.66.68.49,6.28,6.51,7.38,9.27l.15.39.16.39.29.76c.77,2.57-1.14,4.38-2.65,5.88a45.82,45.82,0,0,1-4.89,4.67c-16.69,11.2-23.64,7.74-28.85,9.38-.78.24-3.28,2.62-5.73,3.82-9.54,4.71-12,4.5-21.84,6.81l-7.54.75c-.11,0-.37,0-.45-.15s-.3-.1-.44-.18c-1.06.54-.32.2-1.45.8-7.92,4.18-2.43,1.36-9.37.84-4.28,1.81-4.32-5.4-19.85.8-9.52,3.8-35.39,4.91-46.51,2.78-3.16-.6-3.62-1.55-7.47-1.69-8.8-.32-13.28-.7-22-3.27-3-.87-22.78-7.1-24.25-10.11-.67,2.6-34.33-25.87-36.18-24-4,23.26,11.8,28.8,25.27,34.9l4.39,1.28c3,1.2,7.51,7.82,28.35,11.84,10.85,2.1,25.8,1.08,31.35,2.81,14,4.37,38.36,4.24,50.86-.13,6.43-2.25,13.43,0,20.9.05,8.31.1,13.1-.54,21-1.5,6-.72,20.24-5.36,26.13-7.89,2.84-1.22,5-2.54,7.9-3.79,4.81-2.09,14.11-7.23,17.57-10.62,2.37-2.33,4.95-3.22,8.05-9.53,4.58-9.35.29-18-6.27-24.64a68.66,68.66,0,0,0-6.54-5.16c-8.1-6.32-21.4-13-35.05-10"/><path class="cls-13" d="M350.6,185.46c-.74.29-.19-.13-1.13.75l-7.09,8.72c5.8,10.18,25.8,23.95,36.84,20.17.21,6.26-5,9.42-12.43,7.43-5.66-1.53-13.25-6.82-14.23-6-2.56,4.56,2.13,7,4.87,8.54,8.43,4.77,23,9,33,10.15a87.83,87.83,0,0,0,26.36-1.31c3.27-.7,13.84-3.74,16.66-5.16.72-.37,1.47-.75,2.38-1.28l2.28-2.08-5.93-.22c1.63-2.36,6-1.82,8.58-1.88,1.91-2-.74-4.48-2.56-5-2.56.1-8.25,4.67-12.49,5.87-5,1.43-8.72,3.3-14.65,4.44-10.1,1.94-27,2.71-23.54-11.34,2.72,10,37.55,1.49,44-2.22-1.23-2.35-5.82-2-7.86-3.47,6.29-1.11,10.41-2.73,15.92-4.77,4-1.46,10-5.79,11.93-9.36,3.22-5.88,4.32-9.21,4-17.07a55.48,55.48,0,0,0-4.08-18c-.27-1.78-1.68-1.62-3.69-2.73-4-2.23-6-4.49-12.85-6.35,2,3.42,6.15,8.29,7.45,13.71-3.93-1.89-7-4.72-10-6.18-.76-.67-2.26-1.43-3.26-2.16-3.84-2.8-6.07-5-12.09-4.38-.6-3.68-.12-3.38.61-6.31-8.05-4.32-28.8-2.72-37.72-.4-2.07,1.36-4,1.33-6.6,2.94-3,1.84-3.55,1.38-4.72,4.75-1.84,5.33-2.14,10.93-2.38,16.83l-1.3-1.27-1.29,2.57c-.06.09-.19.23-.27.35-2.88,2.15-11.27,8.16-12.73,11.68m83.63-19.16a18,18,0,0,1,3.21,4.76c2.67,5.28,1.42,8.69.21,13.07,3.31,1.43,4.23,1.11,6.25,3.51-8-3.65-18.08,1.78-25,5.86l-6.62,4.44a11.61,11.61,0,0,1,2.51-3.55c-.77-.64-.31-.35-1.51-.78-10.58-3.71-10.3,9.25-13,15.82-3.86,9.53-11,5.45-15.78,4-3.22-1-4,.24-6.67-.41a16.18,16.18,0,0,1-4.41-.57c-2-1.46-.35-4.87.57-6.5l10.9-16.43c-5.2.2-5.74-1.2-8.55.24-2.21-4.31-4.1-7.42-7.44-10.21-2-1.69-2.54-.82-4.24-1.81,2.19-.91,5.13.08,7,.49,3-12.59,16.73-13.21,21-5.44,2,3.63.17,4.1.17,4.11l.8,4.16c1.27-.74,1.74-1.38,3.21-2.12-1.95,3.19-6.24,7.31-8.67,10.43-1,1.34-1.3,2.17-2.53,3.83s-1.85,2-2.92,3.45c-1,1.34-1.17,2.36-2.43,4-1.95,2.45-4.56,5.25-4.53,8.61l0,1.31c2.69-.67,3.07-.26,5.4-1.58l2.28-1.4a28.07,28.07,0,0,0,8.84-9.29c3.19-5,12.26-11.12,14.44-14.82,0-8.56-2.8-9.77,3.09-16.58l-2.52-.73c6.16-.7,5.06-2.47,10.3-4.14A17.24,17.24,0,0,1,434.23,166.3ZM340.31,273.76c.08.13.23.15.28.35a.62.62,0,0,0,.29.35l2,1.55-.32,2c1.39-2.49,1.22-4.87,3.06-7.29-1,4-2.87,10.49-.26,14.31,3.53,3.25,6.86,5.77,11.89,7.22,14.78,4.26,41.18-2.62,43.47-8.57,7.18.59,11.46,2.26,19.44,1.47,5-.49,12.2-2.35,15.82-4.43A31.44,31.44,0,0,0,450.84,255c2.79-.75-.37.48,1.49-.18-2.27-1.81-1.34-4.12-2-7.9a50.66,50.66,0,0,0-5.47-14.78l-4.53-5.58c-1.26.26,0-.39-.85.55.8,8.86-1.73,14.66-5,21.71-3.18,6.81-7.64,9.88-12.69,13.9-10.19,8.1-31.19,9.65-44.57,7.48-6-1-17.83-4.93-22.61-8.91a9.22,9.22,0,0,1-1-1c-.62-1-1.26-.22,0-.83-.79-1-1.23-1.29-1.28-2.64-.85-1.18-.69-2.51-.4-4,1.34-6.69,3.15-7.41,3.86-10.07.57-2.11-.42-5.67-.28-8.3.17-3.29.93-4.78,1.42-7.41-1.64-1.78-3.66-2.3-5-4.51-2.47-4.07.1-5.45.49-7.9-2.95-1.4-8.42-7.43-10.32-10.42-.83-1.32-1.75-3.26-2.41-4.47-1.94.88-1.42.39-3.42,3.91-6.21,11-10.88,21.17-10.56,34.56.13,5.61,2.32,16.78,4.53,21.44,1.68,3.53,3.16,5,4.82,7.92,1.48,2.63,1,1.74,3,3.43C341.19,273.89,340.62,273.34,340.31,273.76Zm28.86-104.53c-3.67-9.16,5.94-18.42,12.69-20.16,13-3.35,13.22,8.82,10,9.82-.73.22-5.72-1.69-10.07-.35-3.68,1.12-5.35,2.2-7.34,4.29-.9.94-1.85,1.78-2.9,2.94C370.25,167.18,370.44,168,369.17,169.23Z"/><path class="cls-14" d="M417.38,347.21c1,.44,1.25-.25.48,5.25-.2,1.41-.77,3.42-.55,4.56,3.78-5.25,8.78-16.76,10.31-24.63,1.3-6.68-.49-7.81,2.59-10.21,8.36-6.53,17.47-11.23,28.67-11.95,3.11-.2,13.56.53,15.6,2.23,1.65,1.37,6.16,14.69,7.76,18.83,7.5,19.55,13.66,39.55,20,59.71,2.83,9,7.53,26.46,7.68,35.86.12,8.51-3.39,5.86-18.89,8.52l2.35,9c6.44,1.3,21.22-1.84,23.54-6.21,3.34-6.28-13.28-65.23-15.47-73-3.54-12.65-12.94-44.82-17.84-56.46-.88-2.09-1.78-3.22-2.55-4.93-3.6-7.94-7.76-13.82-15.39-18.06l-2.26-1.75c-.77-1.52.17-.48-1.59-1.49a10.55,10.55,0,0,0-1.32-.43c-2.82.86-5,4.24-10.32,6-3.68,1.21-2.82.67-5.06,2.89-4.93,4.88-17.53,10.08-27.83,10.35,4.3,10.17,5.41,8.12,5.21,22.57-.15,11.17-2.25,14.5-5.1,23.4"/><path class="cls-15" d="M431.52,215.07c4.13-1.2,14.19-6.84,18.2-9.33,2.22-1.38,2.9-2.57,5.48-3.63-2.52,5.51-13.83,12.54-17,16.21,1.82.48,4.47,3,2.56,5,2.76,2,5.35,2.64,5.2,7.26a14.64,14.64,0,0,0-5.62-3.94l4.53,5.58A50.66,50.66,0,0,1,450.31,247c.68,3.78-.25,6.09,2,7.9-1.86.66,1.3-.57-1.49.18A31.44,31.44,0,0,1,436,280.73c-3.62,2.08-10.82,3.94-15.82,4.43-8,.79-12.26-.88-19.44-1.47-2.29,5.95-28.69,12.83-43.47,8.57-5-1.45-8.36-4-11.89-7.22,2.34,10.26,18.18,14.38,27.54,14.25,10.3-.13,25.11-6,29.41-12.37,9.61,1.73,20.58,4.07,30.63,2.45,4.75-.76,9.56-1.27,13.62-2.88,11.22-4.48,13-7.46,18.41-15,6.15-8.55,7.23-24.82,5.2-35.42l-1-5.29c.14-2.26-.21-.57.47-1.6-1.63-7-.53-3.68-.11-10.35,0-8.72.34-4.68-1.59-9.71-1.6,1.29-1.18.55-1.85,3.59a18.81,18.81,0,0,0-2.2-4.33c-4.52-8-2.11-13.82-2.08-15.07-.91-1.35-.17-2.62.43-4.25,1.64-4.44,1.48-11.1.41-15s-7.17-9.72-11.17-11.64a55.48,55.48,0,0,1,4.08,18c.29,7.86-.81,11.19-4,17.07-1.95,3.57-8,7.9-11.93,9.36-5.51,2-9.63,3.66-15.92,4.77,2,1.44,6.63,1.12,7.86,3.47"/><path class="cls-7" d="M164.5,218.34c9.21,1.53,20.33-.44,29.23.6,1.54-1.18,11.61-.79,14.52-.89,13.27.18,30.83-5.07,39.34-5.52l3.71,4.53a19.09,19.09,0,0,0,2,1.73l19.14,17c1.72,1.12,3.12,2,4.73,3.22a38.18,38.18,0,0,0,5.26,3.26c11.89,7,32.8,18.42,46.59,18.11,1.42,4.73,7.23,10.67,11.3,13.4.31-.42.88.13-2.33-2.65-2-1.69-1.47-.8-3-3.43-1.66-2.94-3.14-4.39-4.82-7.92-2.21-4.66-4.4-15.83-4.53-21.44-.32-13.39,4.35-23.6,10.56-34.56,2-3.52,1.48-3,3.42-3.91.66,1.21,1.58,3.15,2.41,4.47,1.9,3,7.37,9,10.32,10.42-.39,2.45-3,3.83-.49,7.9,1.34,2.21,3.36,2.73,5,4.51-.49,2.63-1.25,4.12-1.42,7.41-.14,2.63.85,6.19.28,8.3-.71,2.66-2.52,3.38-3.86,10.07-.29,1.45-.45,2.78.4,4,.21-3.71,4.33-10.37,6.25-12.32,1.72.79,3.2,1.65,5.65,1-.37-2.91-3-2.43-5.62-3.64l-1.08-14.37c12.35,6.28,25.26,10.85,41.94,10.65,13.81-.17,20.45-2.42,31.74-7.45,3.52-1.57,5.91-4.19,8.32-4.89a48.59,48.59,0,0,1-2,10.76c-.92,3.25-.61,3.4-5.55,6-8.78,4.69-15,4.42-17.49,6.24,4.46,1.64,18.85-1.27,20.75-6.56-1.65,6.32-8.08,13.16-12.59,16.52-13,9.66-32,11.43-48.05,8.52-5.44-1-17.33-3.82-21-7.87-1.27.61-.63-.19,0,.83a9.22,9.22,0,0,0,1,1c4.78,4,16.64,7.93,22.61,8.91,13.38,2.17,34.38.62,44.57-7.48,5.05-4,9.51-7.09,12.69-13.9,3.3-7.05,5.83-12.85,5-21.71.89-.94-.41-.29.85-.55a14.64,14.64,0,0,1,5.62,3.94c.15-4.62-2.44-5.26-5.2-7.26-2.58.06-7-.48-8.58,1.88l5.93.22-2.28,2.08c-.91.53-1.66.91-2.38,1.28-2.82,1.42-13.39,4.46-16.66,5.16a87.83,87.83,0,0,1-26.36,1.31c-9.95-1.16-24.54-5.38-33-10.15-2.74-1.55-7.43-4-4.87-8.54,1-.81,8.57,4.48,14.23,6,7.42,2,12.64-1.17,12.43-7.43-11,3.78-31-10-36.84-20.17l7.09-8.72c.94-.88.39-.46,1.13-.75,1.46-3.52,9.85-9.53,12.73-11.68-9.71,4.46-15.29,11.85-22.3,18.74a42.66,42.66,0,0,1-5.58-10.75c-.62-2.07-1.16-4.29-1.69-6.28s-.78-4.72-1.87-6.42c-1.11,11.14,2,19.51,5.76,27.8-.6,1.51-2.72,4.49-3.94,6.5-8.71,14.21-11.85,23.72-10,41.19.63,6.05,3.1,10.78,5,15.74-5.93-.66-18.52-6-23.75-8.7l-10.59-5.32-28.67-19.12c-2.7-2.48-3.49-2.3-8.73-7.22l-8.2-7.55c4.85-1.21,9.16-2.39,13.83-3.79,3.21-1,10.54-2.92,12.69-4.25-2.42.48-4.45,1.64-6.5,2.13-2.39.57-4,.79-6.38,1.49-4.45,1.28-8.58,2.21-13.19,3.23-8.16,1.8-20.22,3.05-29.09,3.83-28.88,2.56-63,1-91.52-4.75-12.13-2.44-38.15-9.49-48.28-17-6.1-4.55-13.72-8.9-13.39-19.45a3.11,3.11,0,0,1,.83,1.15c.59,1,0,.12.55,1.16,3.23,6.71,15.45,14.76,24,16.41l-.08.1a25.8,25.8,0,0,1-7.57-3.6c-3.36-.52-5-2.82-7.26-4.52-2.47-1.81-4.11-2.77-5.27-6-1.72-1.82-4-4.65-4.07-7.6-1.39-7-1.17-10.39,2.88-14.77a43.47,43.47,0,0,1,11.49-8.16c11.28-5.57,17.49-7.44,32-7.86,3.4-.1,4-1.77,7-3.15,2.44-1.14,4.33-2.52,6.6-3.49a80.2,80.2,0,0,1,33.16-6.08c3.8.08,15.26,2.26,17,1.54-11.87-2.26-20.36-5.35-35.38-1.92a57.21,57.21,0,0,0-20.89,8.87c-2,1.36-13,3.61-16,3.8a64.08,64.08,0,0,0-23.36,6.21c-8.78,4.38-6.6,4.2-11.79,7.88-3.66,2.59-4.59,5.2-5.72,9.16-.58,2-6.74,9.18-2.44,20,3.14,7.9,13.5,14.65,21,18.26,14.21,6.86,29,11.19,45.58,13.94,6.94,1.15,29.36,4.61,35.43,3.29"/><path class="cls-7" d="M495,444.6c7,.58,19.76-2.4,21.9-6.43,3.34-6.28-13.28-65.23-15.47-73-3.54-12.65-12.94-44.82-17.84-56.46-.88-2.09-1.78-3.22-2.55-4.93-3.6-7.94-7.76-13.82-15.39-18.06l-2.26-1.75a34,34,0,0,1,16.2,13.38c8.62,12.73,12.32,28.53,17.52,43,3.38,9.41,13.57,48,16.28,59.16,1.1,4.53,1.64,8.25,2.5,12.78,5.14,27.15,8.92,32.48-20.89,32.44Z"/><path class="cls-16" d="M250.25,407.19c0,5.52-.67,9.6-.38,15.36,1.35-1.29.42,1.73,1.43-2.08a66.47,66.47,0,0,1,1.19-10.76c2.86-18.55,2.58-17.45,7.37-35.14,1.29-4.75,5.63-17.33,8.45-22.2l3.15-5.94c.23-.52.62-1.45,1-2.15,4-7.45,12.17-18,18-24.35A23.53,23.53,0,0,1,293.8,317l17-13.26c2.58-1.74,10.37-5.88,12.72-6.21-.58-.46,1.22-2.67-5.61.28-4.54,2-8.2,3.1-12.49,6.22-2.09,1.51-2.63,1.2-4.43,2.47a15.27,15.27,0,0,0-2,1.76l-10.15,8.35c-1.33,1.13-.79.92-2.26,2l-5.84-5.11c-1-.82-1.88-1.46-2.94-2.38l-25.1-25.4c-3.55-4.15-12.23-13.88-15.24-18.24l-6.93-9.5a41.7,41.7,0,0,0-2.3-3.58,36.72,36.72,0,0,1-2.28-3c-.83-1.31-1.22-2.44-2.11-3.76-3.17-4.69-15.37-25.22-15.57-29.61-2.91.1-13-.29-14.52.89l4.63.26c.22,2.89,7.89,20.47,10,24.77l24.94,41c.83,1.2,1.58,2.16,2.49,3.37s1.49,2,2.5,3.34c1.88,2.54,2.85,2.89,3.87,4.57a8.52,8.52,0,0,0,1.29,2l2.91,2.92c3.24,4,.36,1.31,5.65,6.62l5.57,6.13a80.23,80.23,0,0,0,6.37,5.9c1.69,1.39.95,1.58,2.75,3.09,2.24,1.87,1.61.67,4.62,3.75,3.24,3.31,3.76,2.36,5.5,4-4.92,5.62-12.74,20.39-15.77,28.61-6,16.42-7.64,25.78-9.87,42.35-.07.49-.12,5.22-.9,5.6"/><path class="cls-17" d="M352.3,256.89c.05,1.35.49,1.62,1.28,2.64,3.7,4.05,15.59,6.89,21,7.87,16.05,2.91,35.08,1.14,48.05-8.52,4.51-3.36,10.94-10.2,12.59-16.52-1.9,5.29-16.29,8.2-20.75,6.56,2.51-1.82,8.71-1.55,17.49-6.24,4.94-2.63,4.63-2.78,5.55-6a48.59,48.59,0,0,0,2-10.76c-2.41.7-4.8,3.32-8.32,4.89-11.29,5-17.93,7.28-31.74,7.45-16.68.2-29.59-4.37-41.94-10.65L358.58,242c2.6,1.21,5.25.73,5.62,3.64-2.45.63-3.93-.23-5.65-1-1.92,2-6,8.61-6.25,12.32"/><path class="cls-18" d="M208.25,218.05c.2,4.39,12.4,24.92,15.57,29.61.89,1.32,1.28,2.45,2.11,3.76a36.72,36.72,0,0,0,2.28,3,41.7,41.7,0,0,1,2.3,3.58l6.93,9.5c3,4.36,11.69,14.09,15.24,18.24l25.1,25.4c1.06.92,2,1.56,2.94,2.38l5.84,5.11c1.47-1.12.93-.91,2.26-2L299,308.25a15.27,15.27,0,0,1,2-1.76c1.8-1.27,2.34-1,4.43-2.47,4.29-3.12,7.95-4.25,12.49-6.22,6.83-2.95,5-.74,5.61-.28-2.35.33-10.14,4.47-12.72,6.21L293.8,317a23.53,23.53,0,0,0-3.34,2.94c-5.83,6.38-14,16.9-18,24.35-.38.7-.77,1.63-1,2.15l-3.15,5.94c-2.82,4.87-7.16,17.45-8.45,22.2-4.79,17.69-4.51,16.59-7.37,35.14a66.47,66.47,0,0,0-1.19,10.76c-1,3.81-.08.79-1.43,2.08l-.16,1.64c1.92-.33,1.64-.66,3.21.52.92.69.46.92,1.82,1.81l31.15,17.2c1.68.73,3.63.75,5.38,1.58,11.47,5.41,25.2,8.58,37.82,10.41,17.56,2.55,34.59,1.86,52.18.62,11.57-.82,20.6-1.92,31.7-5.3,13.84-4.21,13-.92,12.64-8.66-2.18.5-2.66.64-4.78.09-9.64-1.78-19.69,4.19-22.94-7.24a17.44,17.44,0,0,1-.13-8.84c-4.89.66-6.51.6-11-1-3.35,9.92-17.41,10.48-22.49-1.72-8.17-.88-5.34-3.68-9.25-8.69-3.64-4.65-7.79-4.81-10.72-7.85-1.54-1.6-.53-1.56-1.48-2.83-.47-.63-7.37-3.43-3.94-7.8,8.57-10.94-8.73-17.36,17.54-21.19,2.74-.41,6.53-.33,9.2-1,3.13-.77,5.83-1.26,8.25.57,2,1.52,1.33,2.62,5,5.1,5.12,3.48,15.32,8.45,21.16,9,1.84.18.5-.29,1.31.27-.11-1.91-.44-2.14-1.58-3.57-1.5-1.85-.92-1.21-3.33-2.14l12.66.9,2.9-1.31c8.06-3.48,19.54-2.62,26.89,1.67,2.8,1.63,1.45,1.14,4.72.74,2.83-.35,9.44.25,11.51,1.54,10.78,1.67,2.85-.1,10.46,2.88,3.45,1.35,6.94,2.08,10.12,3.7s15.47,7.66,16.38,10l-17.37-7.4c-1.54-.91-3.85-2.37-5.43-2.69,3.17,4.37-.06,1.82,5.24,9.27,9.81,13.8,10.28,18.06,16.56,32.58,15.5-2.66,19,0,18.89-8.52-.15-9.4-4.85-26.82-7.68-35.86-6.32-20.16-12.48-40.16-20-59.71-1.6-4.14-6.11-17.46-7.76-18.83-2-1.7-12.49-2.43-15.6-2.23-11.2.72-20.31,5.42-28.67,11.95-3.08,2.4-1.29,3.53-2.59,10.21-1.53,7.87-6.53,19.38-10.31,24.63-.22-1.14.35-3.15.55-4.56.77-5.5.48-4.81-.48-5.25-1.13,2.56-1.08,3.2-2.39,5.51a10.29,10.29,0,0,1-3.06,3.79c-1.06-5.25-.88-10.71-1.75-15.86-1.33-7.85-6.73-24.25-12.52-30-.9-.9-3-3.38-4.26-3.78-6.2,2.31-12.32,3.22-18.67-.82-1.83-1.17-2.67-1.76-2.91-4.15l-2.06.23h-.29l1.93,1c-14,1.2-25.32,5.18-35.42,13.46-4,3.27-5,5.28-7.48,8.1-.28-8.61,3.45-18.41,7.74-23.78,4-5.05,7.31-6.07,10.39-8.1-.54-1.86-2.27-3.65-3.12-6.06-1-2.86-.86-5.75-.95-8.77l.32-2-2-1.55a.62.62,0,0,1-.29-.35c0-.2-.2-.22-.28-.35-4.07-2.73-9.88-8.67-11.3-13.4-13.79.31-34.7-11.07-46.59-18.11a38.18,38.18,0,0,1-5.26-3.26c-1.61-1.25-3-2.1-4.73-3.22l-19.14-17a19.09,19.09,0,0,1-2-1.73l-3.71-4.53c-8.51.45-26.07,5.7-39.34,5.52m119.4,124.49c-2.12.66-3.63,1.42-5.75-.65a5.65,5.65,0,0,1-1.13-6.49c1.54-3.32,8.33-6,9.4.35,1.33,1.65-.65,4.12-1,6.48Zm-16.42,27.1c-2.26-.29-4-.11-5-2-3-6,4.46-14,9.26-6.44.55.76.24-.81.53,1.45.18,1.45-.1,1.92-.94,3.76C313.92,369,314.3,368.92,311.23,369.64ZM305,394.21c-4.71,2.7-8.92-1.68-7.36-6.5,1.12-3.46,6.79-6.57,9.31-1.07l.62,1.95C307.66,390,307,393.07,305,394.21Zm-13,23.07c-.82-7.72,9.85-11.07,10.15-2.06C302.45,425,292.65,423.66,292,417.28Z"/><path class="cls-19" d="M133.84,154.33c2.34,2.51,5.11,4.53,2,8.8-2.21,3-7.08,3.6-8.78,4.75,1.46,2.14-1.78,5.55-4.38,5.91-2.31.31-9.48-5.2-15.09-7.3-2.44-.91-6.55-1.11-8.48-2.55a41.56,41.56,0,0,1,3.25-2.61l-.86-.53c-4.5-2.87.77,2-1.66-1.44-1.36-1.94,1.05.67-.85-1.3-1.71-1.78-5.43-1.93-8-1.18-6.08,1.82-5.86,6.15-5.86,6.16-.54,1.46-1.59,1.68-2.1,2.28l1.81-.08a12.5,12.5,0,0,1,6.49,1.36c.75,1.51,4.49,2.25,6.29,3.08,1.33.6,1.87.84,3.23,1.52,4.43,2.21,7.84,3.75,11.49,7.46,1.47,1.49.7,1.75,2.52,2.89,6.55,4.13,25.87,3.52,35.31,2.19,4.08-.58,15-.18,17.55.84,1.51.59-.15-.09,1.32.7.86.48.93.5,1.8.91l1.44.68,5.49,2.1c4.83,1,8.92,1.67,13.47.14,1.21-.41,2.62-.73,3.69-1.08,5-1.62,5.63-2.78,12.3-4.07,2.73-.52,2.77-1.43,6.89-1.43V182h5.31c1.25-1.69,8.45-.25,10.06-.09,4.42.44,6.83.71,11.17,1.15,7.74,0,10.51.21,17.18-2.8l1.12-.49.73-.35c5.4-2.73,4.75-2.36,9.78-7.38,6.79-6.8,4.08-3.43,8.67-6.65a39.82,39.82,0,0,1,17.67-7l-10-1.78c-3.5,0-5.71,1.18-8.72,1.54l-3.36,1.78c-7.91,3.19-5.46,3.16-9.25,5.05-2.49,1.24-10.39-.52-13.09,0-1.19.22-2.08.92-3,.77-4.13,1-3.53,2.24-7.59,3.65a25.75,25.75,0,0,1-10.26,1.59,4.15,4.15,0,0,0,.53.18l4.71,1.35c-1,2.5.95.78-1.63,1.9-1,.43-15.45.24-15.29-2.36-4.38,1.69-7,3-12.52,1.05-2.25,1-.76.58-2.6,1.41a6.71,6.71,0,0,1-2.56.7c-1.94-2.42-4.22-3.46-2.78-8-2.5,1.94-1.1,2.94-5.22,4.09-3.26.91-6.07.45-9.35.12l3.75,1.17,1.08,5.76A25.91,25.91,0,0,1,177,176.76c-8.68-3.23-4.57-1-5.71-5.35-.37-1.44.25-.66-.8-1.53,1.47,6.53-4.78,8.67-10.83,9.37a20.82,20.82,0,0,1-8.85-.82c-3-1-4.3-2.22-4.11-5.83l-9.12,2.66c.16-3.33-1.69-4,1.36-5.64l-2.78,1.76c0-2.86.77-4.08,2.24-6.61-.48-2.94,2.05-6.53,3.54-8.7,3.4-4.95,2.5-3.39,5.27-3.83a4.28,4.28,0,0,0,1.59-.39l1.06-.52c-2.81.23-5.53.5-8.27-.28s-2.93-1.79-5.53-2.45l3.52,2.14c-.74,3.07-1.93,4.72-5.78,3.59"/><path class="cls-2" d="M303.86,63.5c.32,1,1.59-1-2.61,2.75C293.94,72.7,288.88,77.1,284,87.19a4.49,4.49,0,0,0-.47,1.14l-.8,3.82c-.79,5.81,5.37,9.6,9.57,12.22,2.88,1.78,3.33,2.31,7.11,3.54,2.6.85,5.43.77,6,3.34,7-1.72.45-.49,8-.31,18.23.44,30.32-11.5,26.94-30.38-2.31,0-2.38-.11-3.42-1-2.5,1.31-7-.15-9.05-1a17.32,17.32,0,0,1-6.38-4.47,19.5,19.5,0,0,1-4.29-6.52c-.52-1.13.09.42-.51-1.11-.86-2.22-1.78-5.26-1.53-7.77-3.07,1.14-9.5,3-11.31,4.83"/><path class="cls-20" d="M357.39,413.57c4.12,2.95,3.08,0,5.56,4.62,1.33,2.49,4.32,3.93,6.12.57.91-1.68,1.51-4.9,2.51-7s2.75-5,5-5.09c6.71-.41,13.64,14.74,27.41,6.72l0-8.91c.7-2.63-.4-12.76-2.79-15.2-.81-.56.53-.09-1.31-.27l-1.76.29c-6.33-.55-16.36-5-21.43-8.26-2.83-1.82-3.37-3.85-6-5.3-1.77-.09-10.81,1.91-13.69,2.37a115,115,0,0,0-12.92,3c0,15.94-2.66,12.82-3.61,18.24,2.78,3.55,6.72,3.41,10.24.59,4.1-3.28,2.41-6.08,1.85-11,2.72,1.45,2.1,1.09,2.11,4,0,3.64-.75,4.62.09,6,4.54-.11,1.55-4.22,9.06-8.21-1.07,2.46-4,4.66-6.09,10.38-1,2.76-3.78,10.46-.41,12.42"/><path class="cls-21" d="M345.36,285c-2.61-3.82-.78-10.33.26-14.31-1.84,2.42-1.67,4.8-3.06,7.29.09,3-.07,5.91.95,8.77.85,2.41,2.58,4.2,3.12,6.06-3.08,2-6.35,3-10.39,8.1-4.29,5.37-8,15.17-7.74,23.78,2.52-2.82,3.5-4.83,7.48-8.1,10.1-8.28,21.46-12.26,35.42-13.46l-1.93-1a45,45,0,0,0-7.25-.08l-8.54,1.67c-3.19.84-.31.58-5.21,1.61a12,12,0,0,0-3,1l-8.32,5.55-6.67,7.62c1-5.51,9.56-20.22,13.7-23.34,6.23-4.7,3.58,1.15,12.94,3.71l12.63,2.25,2.06-.23c.24,2.39,1.08,3,2.91,4.15,6.35,4,12.47,3.13,18.67.82,1.37-2.39.28-.48-.66-5.23A20.63,20.63,0,0,1,405,305.42a15.46,15.46,0,0,1,6.65,8.95c.87-4.54-4.63-10.7-8.32-13.4-2.17-1.59-1.11.18-2.23-2.58,6.13.22,9.46,2.58,13.22,6.83,8.63,9.75,4.68,28.7,2,39.86l-1.77,5.7c-.24,1.8-.38,1,.46,1.94,1.31-2.31,1.26-3,2.39-5.51,2.85-8.9,4.95-12.23,5.1-23.4.2-14.45-.91-12.4-5.21-22.57,10.3-.27,22.9-5.47,27.83-10.35,2.24-2.22,1.38-1.68,5.06-2.89,5.32-1.75,7.5-5.13,10.32-6,.63-1,5.78-6.68,7.43-9.74,8.56-16,5.2-28.79,1.71-43.12-.68,1-.33-.66-.47,1.6l1,5.29c2,10.6.95,26.87-5.2,35.42-5.43,7.57-7.19,10.55-18.41,15-4.06,1.61-8.87,2.12-13.62,2.88-10.05,1.62-21-.72-30.63-2.45-4.3,6.35-19.11,12.24-29.41,12.37-9.36.13-25.2-4-27.54-14.25"/><path class="cls-2" d="M440.11,38.83c-.11.1-.29.09-.35.28l-1.41.89c-1.63.85-4.65,1.69-6,3.38.95,5.39,8.82,10.45,12.47,12.06,17,7.51,49.6,13.62,51.5-10.47l-11.79-5.29c-1.59-.64-4.87-1.12-6.71-1.65a61.23,61.23,0,0,0-23.15-1.78c-2.54.37-5.46.72-7.34,1.17-2.29.55-4.86,1.83-7.18,1.41"/><path class="cls-22" d="M446.65,155.28l-15.19-6.45c-2.81-1.09-3.77-3.48-7.22-3.93-1.92-.25-2.58.28-3.89.4-3.3.3-19.09-4.34-34-.82-8.32,2-6.49,2.91-6.49,2.85s0,.22.06.28c8.92-2.32,29.67-3.92,37.72.4-.72,2.93-1.21,2.63-.61,6.31,6-.63,8.25,1.58,12.09,4.38,1,.73,2.5,1.49,3.26,2.16,3.06,1.46,6.09,4.29,10,6.18-1.3-5.42-5.43-10.29-7.45-13.71,6.83,1.86,8.83,4.12,12.85,6.35,2,1.11,3.42.95,3.69,2.73,4,1.92,10.06,7.66,11.17,11.64s1.23,10.54-.41,15c-.6,1.63-1.34,2.9-.43,4.25.13-4.88,6.53-14.12,9.91-16,15.1-8.31,18.16,22.07,14.46,30.42-1.37,3.1-3.91,4.48-6.4,6.3-1.23.91-8.26,3.85-8.11,3.94,3.05.23,6.76-1.24,9-2.55,3.37-2,5.05-3,6.64-5.58,3.58-5.8,4.27-11.92,2.53-19.9-.79-3.62-1.85-5.49-3.11-8.64-1.5-3.77-2.59-5-5.38-6.83-3.15-2.1-6.09-1.75-9.26,0-3.47,1.87-3.69,3.09-6.07,5.82-.74-10.06-1.94-1.24-1.06-18.45.33-6.33.5-12.7.42-19.1-.1-7.53-1.81-28.89-4.92-34.45l-1-1.12c-.44,2.34,1.73,8.91,2.21,12.61,1,7.88,2.57,43.61.28,45.58-.54.21-.28.3-1.38.19s-.3.12-1.14-.39c-.13-.07-1.38-1.48-1.57-1.7-2.25-2.51-8-5.64-10.29-7.31-.77-.57-.36-.19-.89-.83"/><path class="cls-13" d="M461.79,193.28c0,1.25-2.44,7,2.08,15.07a18.81,18.81,0,0,1,2.2,4.33c.67-3,.25-2.3,1.85-3.59,1.93,5,1.59,1,1.59,9.71l1.07-.32c1.11-.41.58-.22,1.07-.52-.15-.09,6.88-3,8.11-3.94,2.49-1.82,5-3.2,6.4-6.3,3.7-8.35.64-38.73-14.46-30.42-3.38,1.86-9.78,11.1-9.91,16m7.58,12.26c-3.8-13.87,9.18-34.62,11.71-17.79-1.08-2.39-1.22-4.37-4.49-4.46-2.56.75-7.16,19.58-4.67,20.15,1.61.37-1.3.92,2.6.07.73-.17,1.79-.6,2.39-.81-.07-2.94-1.42-3-2-5.69,1.44,1.54,3.8,3.15,3.53,6.24A7.71,7.71,0,0,1,469.37,205.54Z"/><path class="cls-23" d="M185.24,327.34c1.35,3.66,2.41,7,3.66,10.59.94,2.7,1.64,8,3.75,9.6-.62-2.6-.22-.62.25-1.45l10.57.08.13-18.55c6.05-.7,14,.56,18.74-.32-.09-2.26.41-2.53.2-4.84a54.55,54.55,0,0,1-.25-5.54c0-3.67-.19-7.83.13-11.39l-19.16,0c.37,3.76.92,19.09-.23,21.54-2.4,1.14-14.18.56-17.79.32"/><path class="cls-24" d="M203.4,286.52l18.7.11.32,18.89,20.9,0c-1.24-2.69-4.62-6.15-7.57-10.21-4.26-5.86-2.5-1.72-7.19-10.24-1.07-1.94-2.31-3-3.64-5.38l-1.57-2.17c-5.41-5.21-4.45-6.85-9-12.92l-11.16.06Z"/><path class="cls-2" d="M393.4,306.9c1.27.4,3.36,2.88,4.26,3.78,5.79,5.72,11.19,22.12,12.52,30,.87,5.15.69,10.61,1.75,15.86a10.29,10.29,0,0,0,3.06-3.79c-.84-.92-.7-.14-.46-1.94l1.77-5.7c2.69-11.16,6.64-30.11-2-39.86-3.76-4.25-7.09-6.61-13.22-6.83,1.12,2.76.06,1,2.23,2.58,3.69,2.7,9.19,8.86,8.32,13.4a15.46,15.46,0,0,0-6.65-8.95,20.63,20.63,0,0,0-12.25-3.75c.94,4.75,2,2.84.66,5.23"/><path class="cls-25" d="M357.39,413.57c2.1,6.31.41,7.22,6.84,10.13,2.12,2,5.84,5.31,9.95,6.07,4.94.92,10-1.21,11.66-4.52-1.56-1.75-4.08-2.4-5.41-5.34L375,421.36c.59-3.17,1.08-3.37,4.16-3.67-.3-1.71-.6-1.62,0-3.1,4.69,12.63,24.66,11.23,25.44,2.8a99.16,99.16,0,0,0-.15-12.15l-.32-.8,0,8.91c-13.77,8-20.7-7.13-27.41-6.72-2.29.14-4.1,3.07-5,5.09s-1.6,5.36-2.51,7c-1.8,3.36-4.79,1.92-6.12-.57-2.48-4.66-1.44-1.67-5.56-4.62"/><polygon class="cls-26" points="508.78 286.65 530.69 286.76 530.53 264.37 508.73 264.66 508.81 264.33 508.78 286.65"/><polygon class="cls-26" points="181.21 286.31 203.4 286.52 203.22 264.63 181.25 264.77 181.21 286.31"/><path class="cls-27" d="M222.34,327.29l22.06.2-.41.06c.57-2.95.12-3,0-5.41-.1-1.64.29-2.66.33-4.68.06-3.75-.08-7.61-.06-11.36l-.92-.61-20.9,0c-.32,3.56-.11,7.72-.13,11.39a54.55,54.55,0,0,0,.25,5.54c.21,2.31-.29,2.58-.2,4.84"/><path class="cls-28" d="M278,105a34.77,34.77,0,0,0,13.21,25.39c7.5,5.75,18.47,9.31,27.58,10.53a64.77,64.77,0,0,0,32.76-4.16c2.54-1.06,10.05-5.95,11.51-7.58l4.52-5c2.11-2.27,2.25-4,4.22-6,5.32,7.36,1.53,23.55,0,30.93,4.58-4.5,5.47-17.81,4.4-25.56a38.1,38.1,0,0,0-6.81-16.61c-1-1.42-2.6-2.45-2.93-4-2,.15-.84-.58-1.77.51,1.64,4.24,8.9,10.29,5.18,16.08-5.72,8.91-17.14,16.68-27.35,18.11l-8.94,1.32c-3.64-.18-7.33.16-11-.22-9.42-1-18.49-3.51-26.28-8.16a30.6,30.6,0,0,1-8.5-7.37c-.95-1.13-1.73-2.21-2.55-3.3-4.12-5.55-5.22-15.67-3.82-23.35.06-.33.29-1.84.38-2.21l.88-2.15.8-3.82c2.81-8.48,11.19-16.32,17.72-22.08,4.2-3.7,2.93-1.77,2.61-2.75-2.34.86-8,5.27-9.86,7.2-1.42,1.5-3.31,3-4.26,4.22C283.8,82.85,277.13,93.16,278,105"/><path class="cls-26" d="M508.79,245.74l22-.19c.15-4.71.26-8.2-.88-12.56a80.93,80.93,0,0,0-3-9.2l-18.24,0,.08-.34Z"/><path class="cls-26" d="M185.24,327.34c3.61.24,15.39.82,17.79-.32,1.15-2.45.6-17.78.23-21.54l-22,.16c-.27,4.23,2.78,17.06,3.94,21.7"/><path class="cls-26" d="M508.83,327.5c14-.78,11.79,2.28,17.88-3.84,2-2,3.93-2.66,4-6.71.1-3.76,0-8-.09-11.73l.08.24-21.81-.12Z"/><path class="cls-26" d="M304.11,194.62l.2,10.18-.25-.09,22.18-.14-.1-21.65-13.8,0c-1.59,2.37-1.55,3.69-3.63,6.07-1.27,1.45-3.7,4.32-4.6,5.65"/><polygon class="cls-23" points="489.76 286.7 508.78 286.65 508.81 264.33 489.73 264.33 489.76 286.7"/><polygon class="cls-23" points="489.74 245.79 508.79 245.74 508.79 223.43 489.73 223.43 489.74 245.79"/><polygon class="cls-23" points="181.3 305.64 203.26 305.48 203.4 286.52 181.21 286.31 181.3 305.64"/><path class="cls-26" d="M244.47,387.34c-3.21-.74-19.29-.76-22.42,0-.44,7.7-.65,9.05,6.45,15.52,6.56,6,4.34,7.74,16.05,6.49Z"/><path class="cls-7" d="M431.52,215.07c-6.48,3.71-41.31,12.18-44,2.22C384,231.34,400.93,230.57,411,228.63c5.93-1.14,9.61-3,14.65-4.44,4.24-1.2,9.93-5.77,12.49-5.87,3.2-3.67,14.51-10.7,17-16.21-2.58,1.06-3.26,2.25-5.48,3.63-4,2.49-14.07,8.13-18.2,9.33"/><path class="cls-23" d="M203.21,368.45l19-.18a101.48,101.48,0,0,1,.05-11.44c.21-2.47-.08-7.3-.11-10.63l-18.72,0Z"/><path class="cls-23" d="M182.22,245.46c-1.11,6.64-.67,12.25-1,19.31l22-.14c.31-3.76.16-7.65.15-11.46,0-1.61-.12-3.79,0-5.33.19-1.91,1.34-3.35-.42-4.63l.1,2.09c-2.49.84-17.61.55-20.87.16"/><polygon class="cls-23" points="508.73 264.66 530.53 264.37 530.82 245.55 508.79 245.74 508.73 264.66"/><path class="cls-23" d="M222.05,387.38c3.13-.8,19.21-.78,22.42,0l-.16-19-1.17.13-20-.23-.91,0Z"/><polygon class="cls-23" points="508.92 305.34 530.73 305.46 530.69 286.76 508.78 286.65 508.92 305.34"/><path class="cls-29" d="M110.06,153.49c-1.59,2.06-.73,1.35-2.7,2.93l-.25,2.83c-.23,3.24,2.12,5.61,5.13,6.76,7.05,2.71,7.83,1.3,14.8,1.87,1.7-1.15,6.57-1.73,8.78-4.75,3.13-4.27.36-6.29-2-8.8-1.75-.59-2.64-1.55-5-2.28-5.88-1.82-14-1.45-18.13,2.26-.89-.47-.91.72-.62-.82"/><path class="cls-24" d="M508.83,327.5l-.28,18.73c1.86-.18,12.49-.77,14,.6l1.39-2.66c4.41-11.48,9.36-26.2,9.69-38.66l-3-.29c.08,3.77.19,8,.09,11.73-.1,4.05-2,4.72-4,6.71-6.09,6.12-3.86,3.06-17.88,3.84"/><path class="cls-25" d="M375.8,209.22c-.61.65-.64-.43-.68,1.87,4.31.12,9.1-.93,12.76,1.1-2.85.08-8-.56-10,.84,2.69.65,3.45-.57,6.66.41,4.75,1.44,11.93,5.52,15.79-4,2.67-6.57,2.39-19.53,13-15.82,1.2.43.74.14,1.51.78,1.79-1.08.76.14,1.61-1.88l-1.27-.32c-1.39.5-4.24-2.31-5.14-3.22-2.49-2.48-1.9-4.36-3.25-6-2.19,3.7-11.2,10.37-14.39,15.33a28.07,28.07,0,0,1-8.84,9.29l-2.28,1.4c-2.33,1.32-2.71.91-5.4,1.58Z"/><path class="cls-26" d="M345.33,143.86c-.72,6-.27,14.08-.2,20.23l12.89-.24a9.3,9.3,0,0,0,.43-1.56c.64-1.87-.37-.6.91-1.9-.08-4,2-6.73,3.93-9.23,3.07-4,4.65-2.2,3.77-9.54a96.36,96.36,0,0,0-12.25-.08c-3,.26-6.72,2.34-9.48,2.32"/><path class="cls-29" d="M183.89,171.36c3.28.33,6.09.79,9.35-.12,4.12-1.15,2.72-2.15,5.22-4.09.27-11.2-11.78-14.54-21-12.77-5.68,1.08-7.68,6-4.37,10.76,2.21,3.18,6.39,4.43,10.79,6.22"/><path class="cls-26" d="M476.75,286.52l13,.18,0-22.37.08.31-13.49,0c-1.07,1.84-2.11,6.08-3.28,8.5-1.41,2.94-3.88,5.12-4.4,7.62,1.54,1.32,3,1.58,4.56,2.7s2,2.14,3.55,3"/><path class="cls-30" d="M230.6,170.94a25.75,25.75,0,0,0,10.26-1.59c4.06-1.41,3.46-2.7,7.59-3.65.11-.93,4.55-8.77-3.34-11a27.44,27.44,0,0,0-14.36.25c-6.94,2.15-15.53,12.43-.15,16"/><polygon class="cls-4" points="203.26 305.48 222.41 305.52 222.1 286.63 203.4 286.52 203.26 305.48"/><path class="cls-23" d="M304.15,223.66c2.17,0,14-.53,14.74.54,1.11-1.12.74-2.19,1.61-4.81,1.3-3.94,5.48-12.73,5.74-14.82l-22.18.14Z"/><polygon class="cls-31" points="489.81 264.64 489.73 264.33 508.81 264.33 508.73 264.66 508.79 245.74 489.74 245.79 489.81 264.64"/><path class="cls-31" d="M203.47,346.16l18.72,0,.15-18.91c-4.72.88-12.69-.38-18.74.32Z"/><path class="cls-18" d="M415.12,192.19l1.27.32c4.17-2.77,9-6.22,14.68-7.61l4.91-.75c1.18-.31.56,0,1.32-.56,1.22-3.87-.8-4.8-2.88-6.85-5.4-5.34-16.36-9.72-21.87-9.21-6.6,8.53-6.77,18.9,2.57,24.66m13.34-9.2c-3.87,3.83-12.55,3.08-11.95-4.64a6.31,6.31,0,0,1,5.29-6c4.3-.79,6,1.66,7.3,4.32-.67,1-1.46.83-1.6,2.69C427.32,181.91,428.4,180.5,428.46,183Z"/><path class="cls-32" d="M401.28,389.24c2.39,2.44,3.49,12.57,2.79,15.2l.32.8a99.16,99.16,0,0,1,.15,12.15c-.78,8.43-20.75,9.83-25.44-2.8-.59,1.48-.29,1.39,0,3.1-3.08.3-3.57.5-4.16,3.67l5.48-1.45c1.33,2.94,3.85,3.59,5.41,5.34-1.69,3.31-6.72,5.44-11.66,4.52-4.11-.76-7.83-4.07-9.95-6.07,5.08,12.2,19.14,11.64,22.49,1.72,4.53,1.56,6.15,1.62,11,1a17.44,17.44,0,0,0,.13,8.84c3.25,11.43,13.3,5.46,22.94,7.24,0-1.88-3.93-1.47-7.6-1.79-2.93-.26-5.8-.55-8.74-.91a10.93,10.93,0,0,1,1-5.94c-.27-4.07,2.24-13.67,1.37-26.65-.69-10.42-1.53-14-5.67-21.58,5.47,1.67,10,.45,13.93,1.38-1.45-1.11-.18-.66-2.45-1.54a27.61,27.61,0,0,0-3.61-1l-12.66-.9c2.41.93,1.83.29,3.33,2.14,1.14,1.43,1.47,1.66,1.58,3.57m-.12,49.67A83.1,83.1,0,0,1,399,425.78c1.14-1,1.35-.95,2.54-2.13s1.43-1.88,2.68-2.76C404.11,424.5,403,436.94,401.16,438.91Z"/><path class="cls-32" d="M364.23,423.7c-6.43-2.91-4.74-3.82-6.84-10.13-3.37-2-.62-9.66.41-12.42,2.12-5.72,5-7.92,6.09-10.38-7.51,4-4.52,8.1-9.06,8.21-.84-1.39-.09-2.37-.09-6,0-2.93.61-2.57-2.11-4,.56,4.91,2.25,7.71-1.85,11-3.52,2.82-7.46,3-10.24-.59.95-5.42,3.61-2.3,3.61-18.24a115,115,0,0,1,12.92-3c2.88-.46,11.92-2.46,13.69-2.37,2.65,1.45,3.19,3.48,6,5.3,5.07,3.26,15.1,7.71,21.43,8.26L400,389c-5.84-.5-16-5.47-21.16-9-3.65-2.48-3-3.58-5-5.1-2.42-1.83-5.12-1.34-8.25-.57-2.67.66-6.46.58-9.2,1-26.27,3.83-9,10.25-17.54,21.19-3.43,4.37,3.47,7.17,3.94,7.8,1,1.27-.06,1.23,1.48,2.83,2.93,3,7.08,3.2,10.72,7.85,3.91,5,1.08,7.81,9.25,8.69m-17-20a7.77,7.77,0,0,0,2.32-.75c.88-.44,4.44-3.51,4.5-.2a47.17,47.17,0,0,0-1.17,6.62l-8.27-4.87Z"/><polygon class="cls-23" points="325.74 146.49 326.05 163.82 345.13 164.09 345.33 143.86 325.74 146.49"/><path class="cls-23" d="M508.83,327.5l.09-22.16-18.68,0c.2,1.8,3.23,9.2,4.05,11.16,1.62,3.87,2.55,7.13,3.88,11Z"/><path class="cls-26" d="M304.23,245.29c2.52,1.5,10.75.68,14.2.61,0-3.71-.57-7.41-.49-11.32.07-3.66.92-7.18.95-10.38-.73-1.07-12.57-.51-14.74-.54l-.1-.1Z"/><path class="cls-26" d="M182.22,245.46c3.26.39,18.38.68,20.87-.16l-.1-2.09-8.62-19.09-6.63,0c-2.25,4.64-4.3,15.49-5.52,21.37"/><path class="cls-23" d="M284.08,234.46l20.15,10.83-.18-21.73-18.85,0c0,2.1,0,4.21.05,6.3,0,.45.08,2.93,0,3.19-.36,1.64.87,1.71-1.19,1.45"/><path class="cls-33" d="M508.77,204.87l.14-20.64c0-.68-.79-1.14-1.89-1.42a26.61,26.61,0,0,0-4.58-.11c-3.12,0-6.24,0-9.35.05.17,2.64,1.78,6.37,2.23,10.25.56,4.93-.13,7.16-.23,11.7Z"/><path class="cls-27" d="M477.84,245.1c2.93,1.2,8.12.39,11.9.69V223.43h-16c-.33,5.13,4.64,14.47,4.1,21.67"/><path class="cls-34" d="M244,327.55l18.92,0c1.08,4.74,0,10.67.4,15.64l7-11.44-6.7-6.54c-6.82-4.56-17.43-17.9-19.4-19.13,0,3.75.12,7.61.06,11.36,0,2-.43,3-.33,4.68.14,2.43.59,2.46,0,5.41"/><path class="cls-33" d="M244.31,368.33l9.08,0a67.79,67.79,0,0,1,3.86-11.45c1.07-2.55,3.91-8.29,4.27-10.74l-17.18.06Z"/><path class="cls-33" d="M508.77,204.87l-.06,18.9,18.24,0c-.33-3.35-2.28-7.4-3.49-10.22l-3.4-8.37c-.71-1,.18-.12-.94-.91Z"/><path class="cls-26" d="M314.88,162.85c1.78,1.46,2.07,1.07,4.89,1l6.28-.07-.31-17.33a66.85,66.85,0,0,1-11.24-1.17c-3.54-.64-7.25-2.29-10.72-2.16.28,4.57,10.6,10.22,11.1,19.69"/><path class="cls-7" d="M410,189c.9.91,3.75,3.72,5.14,3.22-9.34-5.76-9.17-16.13-2.57-24.66,5.51-.51,16.47,3.87,21.87,9.21,2.08,2,4.1,3,2.88,6.85-.76.53-.14.25-1.32.56l-4.91.75c-5.64,1.39-10.51,4.84-14.68,7.61-.85,2,.18.8-1.61,1.88a11.61,11.61,0,0,0-2.51,3.55l6.62-4.44c6.93-4.08,17-9.51,25-5.86-2-2.4-2.94-2.08-6.25-3.52,1.21-4.37,2.46-7.78-.21-13.06a18,18,0,0,0-3.21-4.76A17.24,17.24,0,0,0,417.65,162c-5.24,1.67-4.14,3.44-10.3,4.14l2.52.73C404.45,173.13,404,183,410,189m6.75-23.43c4-2.78,10.62-1.11,14.19.89,2.93,1.64,6.28,6.57,6.73,11.25-1.51-1.17-2.49-3.08-3.78-4.64C429.41,167.67,416.74,165.54,416.73,165.54Z"/><path class="cls-33" d="M269.84,223.91c2.06-.59,13-.47,15.39,0l-.06-17.45c-3.26.09-11.37,4.45-16,5.64-2.25.58-3.79.64-5.74,1.73-.39,4.46-.85,4.3,3.49,8.21Z"/><path class="cls-4" d="M286,222.6c4,0,13.89.56,17.07-.31l.14-16.75c-2,.08-8.74,0-9.91.34-2.7.85-.27,1.68-3.78,1.37s.06-.78-3-1.71Z"/><path class="cls-26" d="M470.25,155.45l-.05,8.36,19.73-.06c.21-5.71-2.86-7.23-8.22-12.54-1.9-1.88-9.08-9-11.45-9.37Z"/><path class="cls-26" d="M223.16,368.23l20,.23,1.17-.13,0-22.15c-7.2.93-14.91-1.55-22.15,0,0,3.33.32,8.16.11,10.63a101.48,101.48,0,0,0-.05,11.44Z"/><path class="cls-35" d="M146.74,172.6c-.19,3.61,1.15,4.8,4.11,5.83a20.82,20.82,0,0,0,8.85.82c6.05-.7,12.3-2.84,10.83-9.37-1.73-1.06-1.82-2.31-5.32-3.31a18.15,18.15,0,0,0-7.46-.42c-5.29.7-9,3-11,6.45"/><path class="cls-34" d="M222.19,346.2c7.24-1.57,14.95.91,22.15,0-.52-2-.37-15.47.06-18.69l-22.06-.2Z"/><path class="cls-29" d="M136.1,148.6c2.6.66,2.93,1.71,5.53,2.45s5.46.51,8.27.28c3.32-1.18,7.34-1.89,7.89-5.6.51-3.49-3.53-5.79-6.89-6.7-6-1.63-14,.61-15.7,3.95-1.34,2.65.43,3.77.9,5.62"/><path class="cls-36" d="M138.44,164.77c-1.47,2.53-2.24,3.75-2.24,6.61l2.78-1.76c8.75-4.86,12.72-2,21.4-4.1,9.68-2.35,8.16-12.64,6-15.76-2.21,2.72-1.3,3.54-4.53,6.46-5.92,5.33-18.76,1.07-23.39,8.55"/><path class="cls-23" d="M476.32,264.67l13.49,0-.07-18.85c-3.78-.3-9,.51-11.9-.69,1.06,8.29-.43,12.36-1.52,19.57"/><path class="cls-37" d="M369.17,169.23c1.27-1.24,1.08-2,2.36-3.46,1.05-1.16,2-2,2.9-2.94,2-2.09,3.66-3.17,7.34-4.29,4.35-1.34,9.34.57,10.07.35,3.24-1,3.06-13.17-10-9.82-6.75,1.74-16.36,11-12.69,20.16"/><path class="cls-2" d="M409,384.43a27.61,27.61,0,0,1,3.61,1c2.27.88,1,.43,2.45,1.54l2,2.06c.83-.2,2,2.17,2.85,3.52a17.32,17.32,0,0,1,2.17,4.77c1,3.44,2.09,7,2.95,10.41l.38.3.63.22c1.75-1.32,1.13-2.67,4-2.14,6,1.1,10.43,17.29,10.28,24.47a5.88,5.88,0,0,0,0,1.11c0,.13,0,.27.07.4,2.86,14.81-3,47.53-.41,53.8,14.22-.56,24.7,7.23,26.48-3.53s.3-31.59-1.64-42.31c-.47-2.59-1.45-6.61-1.67-9a2.8,2.8,0,0,1-.32-.52c-5.87-10.92,2.12-14.92-10.35-30.33-.7-.87-.84-.75-2.07-1.56s-8.48-9.88-13.71-11.51l-.4-.11c-2.05-.56-3.8-.3-4.52-2.18-2.15.88-2.2.37-2.58.35-3.64-.24-2.53-1.12-12.28-.85-6,.16-4.48-.16-5-1.26Z"/><path class="cls-10" d="M409,384.43a27.61,27.61,0,0,1,3.61,1c2.27.88,1,.43,2.45,1.54l2,2.06c.83-.2,2,2.17,2.85,3.52a17.32,17.32,0,0,1,2.17,4.77c1,3.44,2.09,7,2.95,10.41l.38.3.63.22c1.75-1.32,1.13-2.67,4-2.14,6,1.1,10.43,17.29,10.28,24.47a5.88,5.88,0,0,0,0,1.11c0,.13,0,.27.07.4,2.86,14.81-3,47.53-.41,53.8,14.22-.56,24.7,7.23,26.48-3.53s.3-31.59-1.64-42.31c-.47-2.59-1.45-6.61-1.67-9a2.8,2.8,0,0,1-.32-.52c-5.87-10.92,2.12-14.92-10.35-30.33-.7-.87-.84-.75-2.07-1.56s-8.48-9.88-13.71-11.51l-.4-.11c-2.05-.56-3.8-.3-4.52-2.18-2.15.88-2.2.37-2.58.35-3.64-.24-2.53-1.12-12.28-.85-6,.16-4.48-.16-5-1.26Z"/><path class="cls-30" d="M196.13,137.67c-7.5,1.41-8.12,5.48-2.26,8.85,4.21,2.43,10.42,3.15,16,2.11,6.68-1.25,6.42-6.18,1.24-8.77a24.93,24.93,0,0,0-15-2.19"/><path class="cls-33" d="M312.34,182.9l13.8,0-.09-19.1-6.28.07c-2.82,0-3.11.42-4.89-1,1.65,7-1.16,13.33-2.54,20.05"/><polygon class="cls-38" points="493.63 444.47 493.58 444.42 493.63 444.43 493.63 444.47"/><path class="cls-9" d="M493.36,444.38c-.78,1.82.27,2-1.49.6-1.06-.84-2.33-5.56-2.8-6.86-1.15-3.14-2-5.82-3.14-9.06-4.08-11.92-16.73-33.86-29-40.11l-3.77-1.8c-.07-.19-.25-.17-.36-.29l2.25.21c-2.07-1.29-8.68-1.89-11.51-1.54-3.27.4-1.92.89-4.72-.75-7.35-4.28-18.83-5.14-26.89-1.66.54,1.1-1,1.42,5,1.26,9.75-.27,8.64.61,12.28.85,25.15,6.48,26,31.09,33.63,45.34a2.8,2.8,0,0,0,.32.52l.17-2.08c5.08,15,5.62,23.24,6.47,41.1,3.9-1.46,8.68-4.6,15,1.43,2.56,2.44,6.71,9.8,7,14.23,2.22-3.75,3.84-14.3,4.06-19.64.37-8.93-1.13-13-2.15-20.95h0v-.05h-.09v-.66l-.05-.05-.22,0"/><path class="cls-2" d="M369.47,302.17h.29l-12.63-2.25c-9.36-2.56-6.71-8.41-12.94-3.71-4.14,3.12-12.74,17.83-13.7,23.34l6.67-7.62,8.32-5.55a12,12,0,0,1,3-1c4.9-1,2-.77,5.21-1.61l8.54-1.67a45,45,0,0,1,7.25.08"/><path class="cls-7" d="M373.44,212.46a16.18,16.18,0,0,0,4.41.57c2-1.4,7.18-.76,10-.84-3.66-2-8.45-1-12.76-1.1,0-2.3.07-1.22.68-1.87,0-3.36,2.58-6.16,4.53-8.61,1.26-1.59,1.45-2.61,2.43-4,1.07-1.49,1.74-1.86,2.92-3.45s1.49-2.49,2.53-3.83c2.43-3.12,6.72-7.24,8.67-10.43-1.47.74-1.94,1.38-3.21,2.12a36.54,36.54,0,0,1-4.2,4.23,30,30,0,0,0-3.59,4.29c-4.33.26-8.7-.48-9.71-4.43-1.28-5-2.72-5.85-.18-10.69,3.37-6.44,16-5,16.88,2.44,0,0,1.84-.48-.17-4.11-4.29-7.77-18-7.15-21,5.44-1.87-.41-4.81-1.4-7-.49,1.7,1,2.2.12,4.24,1.81,3.34,2.79,5.23,5.9,7.44,10.21,2.81-1.44,3.35,0,8.55-.24L374,206c-.92,1.63-2.56,5-.57,6.5"/><path class="cls-27" d="M522.53,346.83c-1.49-1.37-12.12-.78-14-.6-.06,6.2-.48,12.27.74,18,.15.68.36,2.1.54,2.63.6,1.7,0,.75,1.09,1.73,2.19-.41,1.61-.12,3.94-4.7.91-1.78,1.86-3.89,2.83-5.71,1.58-2.94,4.1-8,4.84-11.34"/><path class="cls-39" d="M393.67,181.07l-.8-4.16c-.85-7.4-13.51-8.88-16.88-2.44-2.54,4.84-1.1,5.69.18,10.69,1,4,5.38,4.69,9.71,4.43a30,30,0,0,1,3.59-4.29,36.54,36.54,0,0,0,4.2-4.23m-3.75.4c-4.41,9.23-14.71-1.65-7.56-6.53,2.57-1.76,5.24.05,6.78.87-.47,2.4-3.33,2.18-.56,4.76Z"/><path class="cls-30" d="M255.53,153.17c3.61-3.79,10.43-2.92,12.74.76,7.31-2.52,6.82-10.29-4.33-11.64-3.51-.42-8.52.1-10.42,2.1-4.17,4.38,1.1,6.19,2,8.78"/><path class="cls-33" d="M345.13,164.09l0,16.41,10.15-8.17c5.66-3.22,3.38-1.53,3.53-7.33,0-1.58.46-3.05.57-4.61-1.28,1.3-.27,0-.91,1.9a9.3,9.3,0,0,1-.43,1.56Z"/><path class="cls-40" d="M107.36,156.42c2-1.58,1.11-.87,2.7-2.93,1.64-8.75-9.32-10.66-13.3-5.52-4.6,6,3.18,11.92,10.6,8.45"/><path class="cls-27" d="M192.65,347.53c.66,3.38,5.41,12.57,7.57,16.22,1.94,3.29,1.23,4,3,4.7l.26-22.29-10.57-.08c-.47.83-.87-1.15-.25,1.45"/><path class="cls-9" d="M425,407.73c1.57,13.55,2.92,14.12,3.25,29.74.18,8.69.12,23.85-.62,31.41-.4,4.09-2.62,17.61-2,19.85l3-.77a12.5,12.5,0,0,1,3.14-1.2,25.22,25.22,0,0,1,8.17-.87c-2.57-6.27,3.27-39,.41-53.8,0-.13-.05-.27-.07-.4a5.88,5.88,0,0,1,0-1.11c.15-7.18-4.26-23.37-10.28-24.47-2.9-.53-2.28.82-4,2.14l-.63-.22-.38-.3"/><path class="cls-41" d="M405.46,433.82c.64,1.83,4.17,1.21,8.82,1.43,3.66.17,7.31.26,11,.41l-.3-4.88c.89-4.06-2.5-27.7-4.16-32.74l-3.72-9-2-2.06c-3.91-.93-8.46.29-13.93-1.38,4.14,7.54,5,11.16,5.67,21.58.87,13-1.64,22.58-1.37,26.65"/><path class="cls-36" d="M227.13,143.86c-5.46,6.53-3.79,3.21-11.36,9-5.64,4.29-2.33,9.94,3,12,0-7.77-.56-6.88,5.46-11,3.94-2.68,7-3.89,6.56-10.58Z"/><path class="cls-34" d="M263.34,129.65c9-.35,9.08,0,17.13,1.92,2.4.58,2.16,1.07,4.69,1.55-.73-4.29-6.33-6-7.31-13.26-5.58.29-3.63,2-11.86,6.12-2.13,1.08-2.5,1-2.65,3.67"/><path class="cls-33" d="M489.93,163.75l-19.73.06.05-8.36c-1.3,2-.71,12-.57,14.18,4-.65,6.57-2.87,11.85-.69,4.54,1.87,5.25,4.16,8.07,6.62Z"/><path class="cls-42" d="M428.46,183c-.06-2.49-1.14-1.08-1-3.61.14-1.86.93-1.66,1.6-2.69-1.28-2.66-3-5.11-7.3-4.32a6.31,6.31,0,0,0-5.29,6c-.6,7.72,8.08,8.47,11.95,4.64"/><path class="cls-23" d="M530.69,286.76l5.07-.25c.47-5.41.51-17-.61-21.94l-4.62-.2Z"/><path class="cls-43" d="M508.77,204.87l10.35-.58c-.18-1.38-3.24-7.55-4.32-9.67l-5.89-10.25Z"/><path class="cls-28" d="M424.32,492.19c7.69-7.14,18-4.55,29.56-2.41,16.45,3.05,15.42-3.23,15.85-18.11a10.39,10.39,0,0,1,8.5-.91,27,27,0,0,1,6.17,3.86c1.09,1.11,6.44,10.36,7.15,12.78l.27-1.63c-.28-4.43-4.43-11.79-7-14.23-6.33-6-11.11-2.89-15-1.43-.85-17.86-1.39-26.12-6.47-41.1l-.17,2.08c.22,2.35,1.2,6.37,1.67,9,1.94,10.72,3.42,31.52,1.64,42.31s-12.26,3-26.48,3.53a25.22,25.22,0,0,0-8.17.87,12.5,12.5,0,0,0-3.14,1.2l-3,.77c-.66-2.24,1.56-15.76,2-19.85.74-7.56.8-22.72.62-31.41-.33-15.62-1.68-16.19-3.25-29.74-.86-3.4-1.91-7-2.95-10.41a17.32,17.32,0,0,0-2.17-4.77c-.84-1.35-2-3.72-2.85-3.52l3.72,9c9.36,28.82,1.91,64.36,3.54,94.15"/><path class="cls-40" d="M206.4,173.06c5.52,2,8.14.64,12.52-1.05,2.49-6.28-2.58-6.82-8.48-6.38-5.43.41-9.6,4.19-4,7.43"/><path class="cls-34" d="M489.76,286.7l-13-.18a3.89,3.89,0,0,0,.28.35l.56.64c1.85,1.84,1.06.24,3.08,3.36,1.25,1.93,2.13,2.5,3.3,4.13,2.22,3.09,3.3,7.06,5.79,9.66Z"/><path class="cls-44" d="M292,417.28c.67,6.38,10.47,7.72,10.15-2.06-.3-9-11-5.66-10.15,2.06"/><path class="cls-45" d="M284.08,234.46c2.06.26.83.19,1.19-1.45.06-.26,0-2.74,0-3.19-.06-2.09,0-4.2-.05-6.3l0,.43c-2.38-.51-13.33-.63-15.39,0,3.86,3.71,9.45,6.93,14.24,10.55"/><path class="cls-40" d="M255.53,153.17c-3.68,7.6,12.87,9.3,12.74.76-2.31-3.68-9.13-4.55-12.74-.76"/><path class="cls-40" d="M227.13,143.86l3.69-.55c2.06-1.56,3.17-1.89,2.86-5.42-3.19-2.51-6.5-3.88-11.25-1.24-2.77,1.53-4.84,6.06,4.7,7.21"/><path class="cls-46" d="M469.37,205.54a7.71,7.71,0,0,0,9.07-2.29c.27-3.09-2.09-4.7-3.53-6.24.58,2.68,1.93,2.75,2,5.69-.6.21-1.66.64-2.39.81-3.9.85-1,.3-2.6-.07-2.49-.57,2.11-19.4,4.67-20.15,3.27.09,3.41,2.07,4.49,4.46-2.53-16.83-15.51,3.92-11.71,17.79"/><path class="cls-34" d="M304.31,204.8l-.2-10.18c-3.19,1.23-2.41,2.1-7.4,5.18-2.19,1.35-6.8,3.17-7.79,4.9Z"/><path class="cls-42" d="M388.58,180.57c-2.77-2.58.09-2.36.56-4.76-1.54-.82-4.21-2.63-6.78-.87-7.15,4.88,3.15,15.76,7.56,6.53Z"/><path class="cls-13" d="M416.73,165.54s12.68,2.13,17.14,7.5c1.29,1.56,2.27,3.47,3.78,4.64-.45-4.68-3.8-9.61-6.73-11.25-3.57-2-10.16-3.67-14.19-.89"/><path class="cls-47" d="M173.43,143.59c.09-.11.17-.46.2-.38l.47-1.19c.22-.68-.18-.3.44-1.51,4,0,1.9,2.72,1.59,5.05l5.74.1c-.55-2.23-3.13-4.8,1.13-5.2l1.05,3.15c2.33-.83,5.46-5-5.32-4.86s-7.47,4-5.3,4.84"/><path class="cls-48" d="M311.23,369.64c3.07-.72,2.69-.63,3.89-3.26.84-1.84,1.12-2.31.94-3.76-.29-2.26,0-.69-.53-1.45-1.27,1.89.11-1.37-3.68-.91-2.66.33-6,5.47-2.23,8.29.48.36.49.29,1,.63.06,0,.26.32.3.23s.21.15.31.23"/><path class="cls-48" d="M327.65,342.54l1.52-.31c.35-2.36,2.33-4.83,1-6.48v.67c-1.14-3.63-3.52-2.48-6.26-1.58-1,3-1.17,4.25-.12,7.22Z"/><path class="cls-48" d="M305,394.21c2-1.14,2.67-4.23,2.57-5.62l-.62-1.95c-.31,1.7.4-.83-2.58-1.1-4.34-.41-4.76,4.91-3.81,6.9.82,1.7,2.51,1.54,4.44,1.77"/><path class="cls-49" d="M305,394.21c-1.93-.23-3.62-.07-4.44-1.77-.95-2-.53-7.31,3.81-6.9,3,.27,2.27,2.8,2.58,1.1-2.52-5.5-8.19-2.39-9.31,1.07-1.56,4.82,2.65,9.2,7.36,6.5"/><path class="cls-49" d="M299.62,420.93c-1.93-.22-3.62-.06-4.44-1.76-.95-2-.53-7.31,3.81-6.91,3,.28,2.27,2.81,2.58,1.11-2.52-5.51-8.19-2.4-9.31,1.06-1.56,4.83,2.65,9.21,7.36,6.5"/><path class="cls-49" d="M327.65,342.54l-3.85-.48c-1.05-3-.9-4.24.12-7.22,2.74-.9,5.12-2,6.26,1.58v-.67c-1.07-6.33-7.86-3.67-9.4-.35a5.65,5.65,0,0,0,1.13,6.49c2.12,2.07,3.63,1.31,5.75.65"/><path class="cls-32" d="M311.23,369.64c-.1-.08-.26-.33-.31-.23s-.24-.19-.3-.23c-.51-.34-.52-.27-1-.63-3.78-2.82-.43-8,2.23-8.29,3.79-.46,2.41,2.8,3.68.91-4.8-7.52-12.23.45-9.26,6.44,1,1.92,2.7,1.74,5,2"/><path class="cls-50" d="M344.65,404.54l8.27,4.87a47.17,47.17,0,0,1,1.17-6.62c-.06-3.31-3.62-.24-4.5.2a7.77,7.77,0,0,1-2.32.75Z"/><path class="cls-47" d="M117.86,177.87c.09-.11.18-.46.21-.38l.47-1.19c.22-.68-.18-.31.44-1.52,4,.05,1.89,2.73,1.59,5.06l5.73.1c-.54-2.23-3.12-4.8,1.14-5.2l1,3.14c2.34-.82,5.47-5-5.31-4.85s-7.48,4-5.31,4.84"/><path class="cls-47" d="M94.33,156.29c-.09.11-.18.46-.21.38l-.47,1.19c-.22.68.18.31-.44,1.52-4,0-1.9-2.73-1.59-5.06l-5.73-.1c.54,2.23,3.12,4.8-1.14,5.2l-1-3.14c-2.34.82-5.47,5,5.31,4.85s7.48-4,5.31-4.84"/><path class="cls-47" d="M260,168.26c0,.18.12.59,0,.53l.3,1.54c.22.84.39.19.55,1.85-4.17,2.6-3.75-1.56-5-4.16l-6,3.67c2,1.94,6.38,2.89,2.26,6.11l-3.15-2.55c-1.86,2.38-2.35,8.72,8.67,1.49s5.08-9,2.27-8.48"/><path class="cls-47" d="M282.43,148.8c-.08.12-.17.46-.2.38l-.47,1.19c-.22.68.18.31-.44,1.52-4,0-1.9-2.72-1.59-5.06l-5.73-.1c.54,2.24,3.12,4.81-1.14,5.21l-1.05-3.15c-2.33.82-5.46,5,5.32,4.86s7.47-4,5.3-4.85"/><path class="cls-47" d="M177.79,182.5c.09-.12.18-.46.2-.38l.47-1.19c.23-.68-.17-.31.44-1.52,4,0,1.9,2.72,1.6,5.06l5.73.1c-.54-2.24-3.12-4.81,1.14-5.21l1,3.15c2.33-.82,5.47-5-5.31-4.86s-7.48,4-5.31,4.85"/><path class="cls-51" d="M91.35,166.6c8.39,0,21,12.06,23.84,15.21,5,5.58,42.72,1.34,49,2.31,11.32,1.77,6.66,7.75,24.85,4.66,7.76-1.33,12.51-6.84,26.44-6.36,7.2.24,39.49,1.36,44.56-1.58,10.85-6.28,12.83-20.54,34.7-22.3"/><path class="cls-52" d="M116.69,155.75a1.86,1.86,0,1,1-2.16,1.83,2,2,0,0,1,2.16-1.83"/><path class="cls-52" d="M127.33,159.7a1.16,1.16,0,1,1-1.35,1.14,1.26,1.26,0,0,1,1.35-1.14"/><path class="cls-52" d="M141,141.58a1.85,1.85,0,1,1-2.16,1.83,2,2,0,0,1,2.16-1.83"/><path class="cls-52" d="M151.59,145.52a1.16,1.16,0,1,1-1.35,1.15,1.26,1.26,0,0,1,1.35-1.15"/><path class="cls-52" d="M179.57,159.56a1.86,1.86,0,1,1-2.16,1.83,2,2,0,0,1,2.16-1.83"/><path class="cls-52" d="M190.2,163.51a1.16,1.16,0,1,1-1.35,1.14,1.27,1.27,0,0,1,1.35-1.14"/><path class="cls-52" d="M196.94,139.88a1.85,1.85,0,1,1-2.16,1.83,2,2,0,0,1,2.16-1.83"/><path class="cls-52" d="M207.58,143.82a1.16,1.16,0,1,1-1.35,1.15,1.26,1.26,0,0,1,1.35-1.15"/><path class="cls-52" d="M240.61,158.66a1.85,1.85,0,1,0,2.16,1.82,2,2,0,0,0-2.16-1.82"/><path class="cls-52" d="M233.62,162.81a1.74,1.74,0,1,0,2,1.72,1.9,1.9,0,0,0-2-1.72"/><path class="cls-52" d="M162.45,169.74a1.62,1.62,0,1,0,1.89,1.6,1.76,1.76,0,0,0-1.89-1.6"/><path class="cls-52" d="M153.14,173.19a1,1,0,1,0,1.18,1,1.11,1.11,0,0,0-1.18-1"/><path class="cls-52" d="M259.82,144.22a1.85,1.85,0,1,1-2.16,1.83,2,2,0,0,1,2.16-1.83"/><path class="cls-52" d="M266.82,148.37a1.74,1.74,0,1,1-2,1.72,1.89,1.89,0,0,1,2-1.72"/><path class="cls-53" d="M98.84,148a2.08,2.08,0,1,1-2.08,2.08A2.08,2.08,0,0,1,98.84,148"/><path class="cls-53" d="M208.33,167.91a1.88,1.88,0,1,1-1.88,1.88,1.88,1.88,0,0,1,1.88-1.88"/><path class="cls-53" d="M226.92,137.46a2.08,2.08,0,1,1-2.08,2.08,2.08,2.08,0,0,1,2.08-2.08"/><path class="cls-53" d="M261.11,154.14a1.56,1.56,0,1,1-1.56,1.56,1.56,1.56,0,0,1,1.56-1.56"/><path class="cls-36" d="M201,128.25c-7.39.92-4.34-.21-12.62-1-6.16-.63-7.43,5-5.25,9.49,4.62-5,3.76-4.73,10-3.74,4.12.65,6.81,1.71,10.52-2.84Z"/><path class="cls-40" d="M178.62,138.08c2-1.57,1.11-.86,2.7-2.93,1.64-8.74-9.32-10.66-13.29-5.51-4.6,6,3.18,11.91,10.59,8.44"/><path class="cls-53" d="M170.11,129.64a2.08,2.08,0,1,1-2.08,2.07,2.07,2.07,0,0,1,2.08-2.07"/><path class="cls-32" d="M493.36,444.38l-2.35-9c-6.28-14.52-6.75-18.78-16.56-32.58-5.3-7.45-2.07-4.9-5.24-9.27,1.58.32,3.89,1.78,5.43,2.69l17.37,7.4c-.91-2.31-13.14-8.32-16.38-10S469,391.3,465.51,390c-7.61-3,.32-1.21-10.46-2.88l-2.25-.21c.11.12.29.1.36.29l3.77,1.8c12.27,6.25,24.92,28.19,29,40.11,1.11,3.24,2,5.92,3.14,9.06.47,1.3,1.74,6,2.8,6.86,1.76,1.4.71,1.22,1.49-.6"/><path class="cls-14" d="M405.46,433.82a10.93,10.93,0,0,0-1,5.94c2.94.36,5.81.65,8.74.91,3.67.32,7.57-.09,7.6,1.79,2.12.55,2.5.44,4.68-.07.17-3.44.5-10.49,0-13.36l-.27,6.63c-3.65-.15-7.3-.24-11-.41-4.65-.22-8.18.4-8.82-1.43"/><path class="cls-54" d="M401.16,438.91c1.87-2,2.95-14.41,3.06-18-1.25.88-1.46,1.55-2.68,2.76s-1.4,1.09-2.54,2.13a83.1,83.1,0,0,0,2.16,13.13"/><path class="cls-55" d="M83.76,441v-65l39.44-20.6v-1C84.25,344.06,49,331.26,18.73,316.74l21.9,59.68L12.7,413.14A563.63,563.63,0,0,0,83.76,441"/><path class="cls-55" d="M642.28,441v-65l-39.45-20.6v-1c38.95-10.44,74.19-23.24,104.48-37.76L685.4,376.42l27.93,36.72A563.46,563.46,0,0,1,642.28,441"/><path class="cls-55" d="M91,480.25c70.76,27.89,166.57,45,272.07,45s201.3-17.12,272.06-45V383.63c-70.75,27.89-166.56,45-272.06,45S161.7,411.52,91,383.63Z"/><path class="cls-1" d="M559.76,480.34a6.35,6.35,0,0,1-1.48,5.58,9.35,9.35,0,0,1-5.49,3.32,9.83,9.83,0,0,1-6.65-.73,6.5,6.5,0,0,1-2.25-10.17,10.09,10.09,0,0,1,5.87-3.32,9.61,9.61,0,0,1,6.33.69,6.55,6.55,0,0,1,3.67,4.63m-7-53.91q-.21,9.56,0,21.69,0,5.52,0,11.1a48.2,48.2,0,0,0,.49,8.35,5.34,5.34,0,0,0,.29,1c-.12.05-1.45.5-4,1.33-1.42.5-2.94,1.05-4.54,1.7q-2.26-6.06-7.58-19.8-2.73-6.19-8.6-20.26Zm-45.35,57.26c-.65-1.31-1.77-3.41-3.36-6.33-.92-1.62-2.3-3.81-4.14-6.61-.37,1.59-.93,4.21-1.67,7.82q-.6,3.12-1.27,8.43c.78-.12,2.52-.54,5.22-1.28A37.78,37.78,0,0,0,507.36,483.69Zm26.42,8.95-21.27,3.26-2.4-4.75q-.81.47-4,3a45,45,0,0,0-4.36,4.58l-2.92-4.36c-.58-.87-1.41-2.07-2.49-3.62l-.89,7.8-11.3,1.73q1-9.94,2.81-32.76.92-15.24,1-28.78l23.29-3.57q2,5.92,10.31,27.43Q526,473.79,533.78,492.64ZM475.48,441l-16.87,50.13a73.06,73.06,0,0,0,11.09-1.62,34.36,34.36,0,0,0,4.74-1.52q-.4,1.81-1.37,6.28-.54,2.53-1.32,7.62l-35.34,3.41,7-37.72-5.29.82c-1.89.32-4.49.89-7.77,1.73l-3.25-24.46Zm-49.83,5L406,495.09a74.71,74.71,0,0,0,11.16-1,33.23,33.23,0,0,0,4.82-1.25q-.51,1.79-1.71,6.19-.69,2.5-1.74,7.54L383.09,508l9.07-37.27-5.33.53c-1.9.21-4.53.64-7.85,1.3L377.09,448ZM374.78,448l-2,32q-.58,10.33-1.42,28.17l-22-.3-1.82-60.27ZM326.3,477.39c.17-4.06-2.18-6.21-7-6.41a13.28,13.28,0,0,0-1.78,0l-.94,13.71C322.85,484.78,326.1,482.34,326.3,477.39Zm16.56-5.88Q342.41,482.63,335,489t-19.18,5.9l-.94,11.94L293.29,506l.07-29.25q-.06-11.3-.33-31.06a99.7,99.7,0,0,1,18-.46q14.38.58,22.82,6.7Q343.38,458.86,342.86,471.51Zm-81.17-29.17L257,467.28q-2,10.68-5.37,32.43a60.09,60.09,0,0,1-20.79.47q-12.73-2-18.58-8.06-5-5.16-5.9-14.62c-.36-3.63-.23-10.16.4-19.55q.82-13.05,2.18-23.71l25,3.84q-1,5.09-3,16.6-1.11,6.44-2.72,18.28-1.35,9-.32,12.38c.73,2.38,2.68,3.82,5.87,4.31a7.33,7.33,0,0,0,3.15-.32q1.22-8,3.45-25.46,1-8.79,2.34-24.45Zm-59.92,15.37a22.27,22.27,0,0,0-4.17-1.55,5.22,5.22,0,0,0-3.58.53,4.88,4.88,0,0,0-2.63,3.47Q191,462,193.18,468t1.24,10.36a13.37,13.37,0,0,1-7.11,9.46,17.46,17.46,0,0,1-12.3,1.51,36.19,36.19,0,0,1-9.09-2.85q0-1.85,0-6c-.06-1.51-.14-3.52-.27-6a31,31,0,0,0,5.46,2.23q5.72,1.22,6.63-3.11a8.26,8.26,0,0,0-1.1-6.13c-2.05-2.73-4.07-5.48-6.11-8.24q-5.92-8-4-16.86,2-9.24,9.89-12.53,6.92-2.85,16.92-.72a58.11,58.11,0,0,1,12.38,4.36Z"/><path class="cls-56" d="M707.32,283a21.26,21.26,0,0,1-42.51,0c0-11.48,9.46-20.69,21.32-20.69S707.32,271.5,707.32,283Zm-37.21,0c0,9.21,6.81,16.52,16.15,16.52,9.08,0,15.76-7.31,15.76-16.39s-6.68-16.65-15.89-16.65S670.11,273.9,670.11,283Zm12.74,10.85h-4.79V273.14a41.72,41.72,0,0,1,7.94-.63c3.91,0,5.68.63,7.19,1.51a5.74,5.74,0,0,1,2,4.54c0,2.28-1.77,4-4.29,4.8v.25c2,.76,3.16,2.27,3.79,5,.63,3.16,1,4.42,1.51,5.18h-5.17c-.63-.76-1-2.65-1.64-5.05-.38-2.27-1.64-3.28-4.29-3.28h-2.27ZM683,282.1h2.27c2.64,0,4.79-.89,4.79-3,0-1.89-1.39-3.15-4.42-3.15a11.18,11.18,0,0,0-2.64.25Z"/></g></g></svg>