<?xml version="1.0" encoding="UTF-8" standalone="no"?>
<!-- Created with Inkscape (http://www.inkscape.org/) -->

<svg
   xmlns:dc="http://purl.org/dc/elements/1.1/"
   xmlns:cc="http://creativecommons.org/ns#"
   xmlns:rdf="http://www.w3.org/1999/02/22-rdf-syntax-ns#"
   xmlns:svg="http://www.w3.org/2000/svg"
   xmlns="http://www.w3.org/2000/svg"
   xmlns:sodipodi="http://sodipodi.sourceforge.net/DTD/sodipodi-0.dtd"
   xmlns:inkscape="http://www.inkscape.org/namespaces/inkscape"
   width="147.57617mm"
   height="180.26939mm"
   viewBox="0 0 147.57617 180.26939"
   version="1.1"
   id="svg8"
   inkscape:version="0.92.1 r15371"
   sodipodi:docname="pizza flat.svg">
  <defs
     id="defs2" />
  <sodipodi:namedview
     id="base"
     pagecolor="#ffffff"
     bordercolor="#666666"
     borderopacity="1.0"
     inkscape:pageopacity="0.0"
     inkscape:pageshadow="2"
     inkscape:zoom="0.98994949"
     inkscape:cx="314.02193"
     inkscape:cy="313.2381"
     inkscape:document-units="mm"
     inkscape:current-layer="g4529"
     showgrid="false"
     fit-margin-top="0"
     fit-margin-left="0"
     fit-margin-right="0"
     fit-margin-bottom="0"
     inkscape:window-width="1920"
     inkscape:window-height="1057"
     inkscape:window-x="1352"
     inkscape:window-y="-8"
     inkscape:window-maximized="1" />
  <metadata
     id="metadata5">
    <rdf:RDF>
      <cc:Work
         rdf:about="">
        <dc:format>image/svg+xml</dc:format>
        <dc:type
           rdf:resource="http://purl.org/dc/dcmitype/StillImage" />
        <dc:title></dc:title>
      </cc:Work>
    </rdf:RDF>
  </metadata>
  <g
     inkscape:label="Capa 1"
     inkscape:groupmode="layer"
     id="layer1"
     transform="translate(-31.289296,-54.16292)">
    <g
       id="g4529"
       transform="matrix(0.35209035,0,0,0.35209035,31.113977,54.162978)">
      <path
         id="path4485"
         d="m 87.027045,388.90625 v 53.64844 c 0,10.59375 8.347718,19.18359 18.642855,19.18359 10.29514,0 18.64287,-8.58984 18.64287,-19.18359 V 308.89453 l 44.87799,31.46875 v 64.60156 c 0,10.59375 8.34773,19.17969 18.64287,19.17969 10.29514,0 18.63905,-8.58594 18.63905,-19.17969 v -38.45703 l 95.14275,66.71094 v 49.32813 c 0,10.59765 8.34771,19.18359 18.64285,19.18359 10.29514,0 18.63907,-8.58984 18.63907,-19.18359 v -23.1836 l 60.87115,42.67578 V 78.429688 c -141.37596,0 -266.10204,73.335942 -340.225531,185.050782 L 87.027045,282.75 v 26.14844"
         inkscape:connector-curvature="0"
         style="fill:#ffeb9a;fill-opacity:1;stroke-width:0.98580557" />
      <path
         id="path4487"
         d="M 399.63281,68.542968 V 20.187499 c 0,-11.414063 -9.51563,-20.539063 -20.92188,-20.054688 C 305.65625,3.230468 234.10547,22.527342 169.30078,56.718749 104.50781,90.90234 48.230465,139.04687 4.499996,197.55469 c -6.84375,9.15234 -4.667968,22.16796 4.777344,28.60156 l 40.265625,27.4375 C 125.8125,141.8789 254.15625,68.542968 399.63281,68.542968 Z m 0,0"
         inkscape:connector-curvature="0"
         style="fill:#fec377;fill-opacity:1;stroke:none;stroke-width:0.99974334;stroke-miterlimit:4;stroke-dasharray:none;stroke-opacity:1" />
      <g
         id="g4499"
         style="fill:#ff5a5a"
         transform="matrix(0.97181265,0,0,1,1.6783588,0)">
        <path
           id="path4489"
           d="m 226.54297,227.58984 c -9.6836,-22.50781 -35.77735,-32.90234 -58.28516,-23.21875 -22.50781,9.6836 -32.90234,35.77735 -23.21875,58.28516 9.67969,22.50781 35.77735,32.90234 58.28516,23.21875 22.50781,-9.67969 32.90234,-35.77734 23.21875,-58.28516 z m 0,0"
           inkscape:connector-curvature="0"
           style="fill:#ff5023;fill-opacity:1" />
        <path
           id="path4491"
           d="m 374.67578,248.08594 c -9.67969,-22.50782 -35.77734,-32.90235 -58.28516,-23.21875 -22.50781,9.68359 -32.90234,35.77734 -23.21875,58.28515 9.6836,22.50782 35.77735,32.90625 58.28516,23.22266 22.50781,-9.68359 32.90234,-35.78125 23.21875,-58.28906 z m 0,0"
           inkscape:connector-curvature="0"
           style="fill:#ff5023;fill-opacity:1" />
        <path
           id="path4493"
           d="m 399.75781,350.61328 c -22.5039,9.68359 -32.90234,35.77734 -23.21875,58.28516 6.13672,14.26562 18.86719,23.65625 33.09766,26.16015 v -87.39062 c -3.32813,0.58594 -6.64063,1.55078 -9.87891,2.94531 z m 0,0"
           inkscape:connector-curvature="0"
           style="fill:#ff5023;fill-opacity:1" />
        <path
           id="path4495"
           d="m 318.57812,375.50781 c -9.68359,-22.5039 -35.77734,-32.90234 -58.28515,-23.21875 -13.39844,5.76563 -22.5,17.34375 -25.63672,30.51563 l 68.49219,46.67187 c 16.98437,-11.77734 23.91406,-34.25 15.42968,-53.96875 z m 0,0"
           inkscape:connector-curvature="0"
           style="fill:#ff5023;fill-opacity:1" />
        <path
           id="path4497"
           d="m 339.91797,84.152344 c -23.94141,3.964844 -47.20313,9.9375 -69.60938,17.738286 -4.17968,10.53515 -4.35156,22.66406 0.48438,33.89453 9.68359,22.50781 35.77734,32.90625 58.28515,23.22265 22.50782,-9.68359 32.90235,-35.78125 23.21875,-58.28906 -2.86328,-6.652344 -7.16406,-12.234375 -12.3789,-16.566406 z m 0,0"
           inkscape:connector-curvature="0"
           style="fill:#ff5023;fill-opacity:1;stroke:none" />
      </g>
      <path
         id="path4501"
         d="M 410.37109,8.363281 C 404.39844,2.636719 396.55859,-0.320312 388.29297,0.0273438 314.14062,3.175781 240.25781,23.136719 174.63672,57.761719 109.02734,92.378906 50.882812,142.06641 6.492188,201.45312 c -4.957032,6.62891 -6.9375,14.78125 -5.574219,22.94922 1.367187,8.17188 5.886719,15.24219 12.730469,19.90625 l 40.265624,27.4375 c 0,0 0.0039,0.004 0.0039,0.004 l 23.90625,16.28906 v 20.86328 c 0,5.52344 4.476562,10 10,10 5.523437,0 10,-4.47656 10,-10 V 282.754 c 0,-3.3086 -1.636719,-6.40235 -4.367188,-8.26563 l -19.89843,-13.55868 c 8.820312,-12.27735 18.3125,-24.04297 28.402346,-35.30078 10.37109,-11.57422 21.41797,-22.59766 33.07812,-32.88282 11.22266,-9.89843 22.91016,-19.25 35.11328,-27.91797 12.67969,-9.0039 25.86719,-17.23828 39.45313,-24.80468 13.60937,-7.58594 27.72656,-14.32813 42.13281,-20.26563 1.80469,-0.74218 3.61719,-1.47656 5.4336,-2.19922 -0.0977,7.53125 1.37109,15.0586 4.43359,22.17969 5.73828,13.33984 16.32812,23.64844 29.82031,29.01953 6.51172,2.59766 13.32422,3.89063 20.12891,3.89063 7.29297,0 14.57812,-1.48828 21.47656,-4.45313 13.33984,-5.74219 23.64453,-16.33203 29.01953,-29.82031 5.375,-13.49219 5.17188,-28.26562 -0.5664,-41.605469 -0.76563,-1.785156 -1.63672,-3.519531 -2.58594,-5.210937 13.51953,-1.671875 27.12109,-2.667969 40.73828,-2.996094 v 251.40625 c -16.23828,5.57031 -29.00781,18.68359 -34.19531,35.05078 -5.74219,18.12109 -1.34766,38.42188 11.3164,52.58203 6.17578,6.90625 14.11719,12.15235 22.87891,15.15235 V 483.125 l -47,-32.02734 c -3.06641,-2.08594 -7.03125,-2.3125 -10.30859,-0.57813 -3.27344,1.73438 -5.32422,5.13672 -5.32422,8.84375 v 23.18359 c 0,5.06641 -4.1211,9.1836 -9.1836,9.1836 -5.0625,0 -9.18359,-4.1211 -9.18359,-9.1836 v -49.32812 c 0,-1.22656 -0.22656,-2.42188 -0.64453,-3.53516 14.08203,-15.48047 18.32031,-38.26172 9.77344,-58.125 -11.84375,-27.53515 -43.88672,-40.30078 -71.42579,-28.45312 -11.38671,4.89844 -20.67187,13.60156 -26.4375,24.35937 l -13.53515,-9.22265 c -3.0625,-2.08594 -7.02735,-2.3086 -10.30469,-0.57813 -3.27734,1.73438 -5.32812,5.13672 -5.32812,8.83985 v 38.46093 c 0,5.0625 -4.11719,9.17969 -9.17969,9.17969 -5.0625,0 -9.1836,-4.12109 -9.1836,-9.17969 v -64.60156 c 0,-3.30859 -1.63671,-6.40234 -4.36718,-8.26562 l -46.1836,-31.46485 c -3.05859,-2.08593 -7.02734,-2.3125 -10.30468,-0.57812 -3.27735,1.73047 -5.32422,5.13672 -5.32422,8.83984 v 133.66016 c 0,5.0664 -4.1211,9.18359 -9.1836,9.18359 -5.0625,0 -9.179685,-4.12109 -9.179685,-9.18359 v -53.64844 c 0,-5.52344 -4.480469,-10 -10.003906,-10 -5.523438,0 -10,4.47656 -10,10 v 53.64844 c 0,16.09375 13.09375,29.18359 29.183591,29.18359 16.08985,0 29.1836,-13.08984 29.1836,-29.18359 V 327.8125 l 26.17968,17.83594 v 59.3164 c 0,16.08985 13.08985,29.17969 29.1836,29.17969 16.08984,0 29.18359,-13.08984 29.18359,-29.17969 v -19.54296 l 8.28125,5.64453 c 0.004,0 0.004,0.004 0.008,0.004 l 68.49219,46.67188 1.11719,0.76172 v 44.04296 c 0,16.08985 13.08984,29.1836 29.18359,29.1836 16.08985,0 29.1836,-13.09375 29.1836,-29.1836 v -4.27343 l 47.0039,32.03125 c 6.52344,4.44531 15.63282,-0.40625 15.63282,-8.26563 V 30.078125 c -0.004,-8.277344 -3.29297,-15.988281 -9.26954,-21.714844 z M 246.53906,378.80078 c 3.49219,-7.73828 9.70313,-13.88281 17.70313,-17.32422 17.41015,-7.48828 37.66015,0.57813 45.15234,17.98438 5.53906,12.88281 2.58594,27.70703 -6.87109,37.48828 l -37,-25.21094 z M 20.648438,221.11328 c -0.457032,-2.73828 0.207031,-5.46484 1.863281,-7.6875 42.625,-57.02344 98.457031,-104.73437 161.457031,-137.976561 63.01953,-33.25 133.96094,-52.417969 205.16797,-55.4375 0.14844,-0.0078 0.29687,-0.01172 0.4414,-0.01172 2.60157,0 5.0586,0.984375 6.95313,2.800781 2,1.921875 3.10156,4.503907 3.10156,7.273438 v 38.46875 c -15.98828,0.363281 -31.96094,1.628906 -47.80859,3.753906 -4.51953,0.609375 -9.04688,1.246094 -13.54297,1.988281 -24.17969,4.003906 -48.15625,10.113282 -71.26172,18.160156 -16.34765,5.691407 -32.33984,12.539069 -47.91406,20.082029 -15.80469,7.64844 -31.14453,16.39454 -45.84375,25.9961 -14.45703,9.44531 -28.34375,19.70312 -41.61719,30.74609 -13.39062,11.14453 -26.02344,23.17188 -37.992186,35.82422 -11.75,12.42578 -22.6875,25.64063 -32.859375,39.37891 -1.273438,1.71875 -2.535157,3.44531 -3.78125,5.17968 l -32.101563,-21.875 c -2.289062,-1.55859 -3.804687,-3.92578 -4.261718,-6.66406 z M 343.46875,130.96875 c -3.39844,8.52734 -9.91016,15.22266 -18.34375,18.85156 -8.43359,3.625 -17.76953,3.75391 -26.29688,0.35547 -8.52734,-3.39453 -15.22265,-9.91015 -18.85156,-18.34375 -3.01953,-7.02344 -3.60937,-14.67969 -1.75781,-21.96875 15.00391,-5.03125 30.31641,-9.26172 45.8125,-12.480468 4.23437,-0.878906 8.47266,-1.71875 12.72656,-2.480468 2.65625,2.851562 4.78516,6.121096 6.35156,9.769536 3.62891,8.43359 3.75391,17.76953 0.35938,26.29687 z m 42.25781,273.97656 c -3.6289,-8.42968 -3.7539,-17.76953 -0.35937,-26.29687 2.82812,-7.09766 7.8164,-12.92188 14.26953,-16.76953 v 58.97265 c -6.10938,-3.65234 -11.00781,-9.16015 -13.91016,-15.90625 z m 0,0"
         inkscape:connector-curvature="0"
         style="display:inline;stroke:none;stroke-opacity:1;fill:none" />
      <path
         id="path4503"
         d="m 162.68038,295.625 c 6.32817,2.59375 12.94864,3.88672 19.56153,3.88672 7.0874,0 14.16721,-1.48438 20.87119,-4.45313 26.75902,-11.84765 39.16481,-43.89062 27.65111,-71.42578 -5.57653,-13.33984 -15.86788,-23.64843 -28.97975,-29.01953 -13.10809,-5.375 -27.4689,-5.17578 -40.43273,0.56641 -12.96383,5.73828 -22.97805,16.32812 -28.20154,29.82031 -5.22349,13.48828 -5.0261,28.26563 0.55043,41.60547 5.57654,13.33984 15.86789,23.64453 28.97976,29.01953 z m -11.47194,-63.22266 c 3.29885,-8.52734 9.63081,-15.22265 17.82669,-18.85156 4.23649,-1.875 8.71214,-2.81641 13.1916,-2.81641 4.17955,0 8.36289,0.82032 12.36403,2.46094 8.28699,3.39453 14.79357,9.91016 18.32018,18.33985 7.27722,17.40625 -0.56562,37.66015 -17.48123,45.14843 -8.19207,3.62891 -17.26866,3.75391 -25.55564,0.35938 -8.28698,-3.39844 -14.79357,-9.91406 -18.31639,-18.34375 -3.52661,-8.4336 -3.65189,-17.77344 -0.34924,-26.29688 z m 0,0"
         inkscape:connector-curvature="0"
         style="fill:#ffe192;fill-opacity:0.03072623;stroke-width:0.98580557" />
      <path
         id="path4505"
         d="m 313.80469,316.11719 c 6.51172,2.59765 13.32422,3.89062 20.1289,3.89062 7.29297,0 14.57813,-1.48828 21.47657,-4.45703 13.33984,-5.73828 23.64453,-16.32812 29.01953,-29.81641 5.375,-13.49218 5.17578,-28.26562 -0.56641,-41.60937 -5.73828,-13.33594 -16.32812,-23.64453 -29.81641,-29.01953 -13.49218,-5.375 -28.26953,-5.17188 -41.60546,0.5664 -13.33985,5.73829 -23.64844,16.32813 -29.02344,29.82032 -5.3711,13.49218 -5.17188,28.26562 0.5664,41.60547 5.73829,13.33984 16.32813,23.64843 29.82032,29.01953 z M 302,252.89453 c 3.39453,-8.52734 9.91016,-15.21875 18.34375,-18.84766 4.35937,-1.875 8.96484,-2.8164 13.57422,-2.8164 4.30078,0 8.60547,0.8164 12.72265,2.45703 8.52735,3.39844 15.22266,9.91406 18.85157,18.34375 3.625,8.43359 3.7539,17.77344 0.35547,26.30078 -3.39844,8.52344 -9.91016,15.21875 -18.34375,18.84766 -8.42969,3.625 -17.76954,3.7539 -26.29688,0.35547 -8.52734,-3.39453 -15.22266,-9.91016 -18.85156,-18.33985 -3.625,-8.43359 -3.75,-17.77343 -0.35547,-26.30078 z m 0,0"
         inkscape:connector-curvature="0"
         style="fill:#ffe192;fill-opacity:0" />
      <path
         id="path4507"
         d="m 87.832031,358.91016 c 4.230469,0 8.082031,-2.77735 9.453125,-6.76563 1.375,-3.99609 0.0078,-8.61328 -3.367187,-11.17969 -3.238281,-2.46093 -7.730469,-2.70703 -11.226563,-0.63281 -3.617187,2.14453 -5.503906,6.49219 -4.648437,10.60547 0.957031,4.58203 5.101562,7.97266 9.789062,7.97266 z m 0,0"
         inkscape:connector-curvature="0"
         style="stroke:none;stroke-opacity:1;fill:none" />
    </g>
  </g>
</svg>
