<svg height="512pt" viewBox="-60 0 511 512" width="512pt" xmlns="http://www.w3.org/2000/svg"><path d="m223.863281 314.523438h-55.027343l-10-174.089844 10-112.21875v-18.683594c0-5.265625 4.265624-9.53125 9.53125-9.53125h35.964843c5.265625 0 9.53125 4.265625 9.53125 9.53125v45.207031l10 94.5zm0 0" fill="#ffcd70"/><path d="m68.21875 215.03125-54.671875 6.253906-12.988281-113.539062c-.55468775-4.839844 2.921875-9.214844 7.761718-9.765625l37.140626-4.25c4.84375-.554688 9.214843 2.921875 9.769531 7.761719zm0 0" fill="#ffcd70"/><path d="m126.605469 323.46875-54.957031 2.765625-13.117188-260.347656c-.246094-4.867188 3.5-9.011719 8.367188-9.257813l37.335937-1.878906c4.867187-.246094 9.007813 3.5 9.253906 8.367188zm0 0" fill="#ffe170"/><path d="m323.570312 226.605469 54.671876 6.253906 14.3125-125.113281c.554687-4.839844-2.921876-9.214844-7.761719-9.765625l-37.140625-4.25c-4.84375-.554688-9.214844 2.921875-9.769532 7.761719zm0 0" fill="#ffe170"/><path d="m266.507812 334.113281 54.957032 2.769531 13.117187-260.351562c.246094-4.867188-3.5-9.011719-8.367187-9.253906l-37.335938-1.882813c-4.867187-.246093-9.011718 3.5-9.257812 8.367188zm0 0" fill="#ffb65c"/><path d="m168.835938 322.875h-55.027344v-294.660156c0-5.175782 4.195312-9.371094 9.371094-9.371094h36.285156c5.175781 0 9.371094 4.195312 9.371094 9.371094zm0 0" fill="#ffb65c"/><path d="m278.894531 306.957031h-55.03125v-260.679687c0-4.871094 3.953125-8.824219 8.824219-8.824219h37.382812c4.871094 0 8.824219 3.953125 8.824219 8.824219zm0 0" fill="#ffe170"/><path d="m196.117188 415.355469h-52.132813v-305.246094c0-5.121094 4.15625-9.273437 9.277344-9.273437h33.582031c5.121094 0 9.273438 4.152343 9.273438 9.273437zm0 0" fill="#ffe170"/><path d="m248.253906 444.789062h-52.136718v-305.242187c0-5.125 4.15625-9.277344 9.277343-9.277344h33.582031c5.121094 0 9.273438 4.152344 9.273438 9.277344v305.242187zm0 0" fill="#ffb65c"/><path d="m150.835938 463.3125-52.109376 1.65625-9.703124-305.089844c-.160157-5.121094 3.859374-9.40625 8.980468-9.570312l33.5625-1.066406c5.121094-.164063 9.402344 3.855468 9.566406 8.976562zm0 0" fill="#ffcd70"/><path d="m300.386719 471.78125h-52.132813v-305.246094c0-5.121094 4.152344-9.273437 9.273438-9.273437h33.582031c5.121094 0 9.273437 4.152343 9.273437 9.273437v305.246094zm0 0" fill="#ffcd70"/><path d="m306.542969 512h-219.972657c-14.734374 0-27.3125-10.660156-29.722656-25.199219l-49.171875-296.3125h35.09375c16.527344 0 31.589844 9.464844 38.757813 24.355469 20.742187 43.101562 64.113281 72.066406 112.59375 73.210938 50.777344 1.199218 97.195312-28.355469 118.824218-73.53125 7.082032-14.792969 22.210938-24.035157 38.605469-24.035157h33.886719l-49.171875 296.3125c-2.414063 14.539063-14.988281 25.199219-29.722656 25.199219zm0 0" fill="#e55045"/><path d="m119.929688 288.054688c13.816406.328124 27.304687-1.640626 40.0625-5.5625-34.058594-10.480469-62.753907-35.003907-78.464844-67.648438-7.167969-14.890625-22.230469-24.355469-38.757813-24.355469h-35.09375l5.957031 35.898438c22.480469 36.660156 62.28125 60.628906 106.296876 61.667969zm0 0" fill="#c43730"/><path d="m351.550781 190.488281c-16.398437 0-31.523437 9.242188-38.605469 24.035157-2.394531 4.996093-5.105468 9.792968-8.078124 14.386718l-42.796876 257.890625c-2.410156 14.539063-14.984374 25.199219-29.722656 25.199219h74.191406c14.738282 0 27.3125-10.660156 29.726563-25.199219l49.171875-296.3125zm0 0" fill="#c43730"/><path d="m243.441406 390.335938c0 26.460937-21.453125 47.914062-47.914062 47.914062-26.460938 0-47.914063-21.453125-47.914063-47.914062 0-26.460938 21.453125-47.914063 47.914063-47.914063 26.460937 0 47.914062 21.453125 47.914062 47.914063zm0 0" fill="#fff"/></svg>