<?xml version="1.0"?>
<svg xmlns="http://www.w3.org/2000/svg" xmlns:xlink="http://www.w3.org/1999/xlink" version="1.1" id="Capa_1" x="0px" y="0px" viewBox="0 0 419.04 419.04" style="enable-background:new 0 0 419.04 419.04;" xml:space="preserve" width="512px" height="512px"><g><g>
	<g>
		<path d="M419.04,306.227l-52.72-175.12c-1.056-3.498-4.349-5.836-8-5.68H60.08c-3.651-0.156-6.944,2.182-8,5.68L0,305.907    c0.113,0.769,0.113,1.551,0,2.32v77.68c-0.003,4.296,3.387,7.828,7.68,8h403.36c4.418,0,8-3.582,8-8v-77.36    C418.927,307.778,418.927,306.996,419.04,306.227z M66,141.427h286.72l47.6,159.12H18.48L66,141.427z M278.72,316.547l-5.36,22.88    h-128l-5.36-22.88H278.72z M402.96,377.907H15.68v-61.36H123.6l8,32.8c0.871,3.689,4.211,6.261,8,6.16h139.92    c3.789,0.101,7.13-2.471,8-6.16l8-32.8h107.52L402.96,377.907z" data-original="#000000" class="active-path" data-old_color="#000000" fill="#FFFFFF"/>
	</g>
</g><g>
	<g>
		<path d="M209.36,155.827c-78,0-139.04,28.64-139.04,65.2s61.12,65.12,139.04,65.12s139.04-28.64,139.04-65.2    S287.36,155.827,209.36,155.827z M209.36,270.147c-72.48,0-123.04-25.92-123.04-49.2c0-23.28,50.56-49.12,123.04-49.12    s123.04,25.92,123.04,49.2C332.4,244.307,281.84,270.147,209.36,270.147z" data-original="#000000" class="active-path" data-old_color="#000000" fill="#FFFFFF"/>
	</g>
</g><g>
	<g>
		<path d="M161.36,94.307c-5.76-6.64-3.76-10.4,2.64-20.24c6.4-9.84,17.6-26.88-3.28-46.4c-3.225-3.027-8.293-2.865-11.32,0.36    c-3.026,3.225-2.865,8.293,0.36,11.32c11.04,10.32,8,15.52,0.8,25.92s-14.88,23.36-0.96,39.52    c2.316,3.763,7.243,4.936,11.006,2.621s4.936-7.243,2.621-11.006C162.733,95.599,162.101,94.89,161.36,94.307z" data-original="#000000" class="active-path" data-old_color="#000000" fill="#FFFFFF"/>
	</g>
</g><g>
	<g>
		<path d="M212.24,27.667c-3.019-3.226-8.081-3.394-11.307-0.375s-3.394,8.081-0.375,11.307c0.25,0.267,0.518,0.517,0.803,0.748    c11.04,10.32,8,15.52,0.8,25.92c-7.2,10.4-15.28,23.36-1.36,39.52c2.791,3.425,7.83,3.939,11.255,1.148s3.939-7.83,1.148-11.255    c-0.104-0.128-0.212-0.252-0.323-0.373c-5.76-6.64-3.76-10.4,2.64-20.24C221.92,64.227,233.12,47.187,212.24,27.667z" data-original="#000000" class="active-path" data-old_color="#000000" fill="#FFFFFF"/>
	</g>
</g><g>
	<g>
		<path d="M263.44,27.667c-3.225-3.027-8.293-2.865-11.32,0.36c-3.026,3.225-2.865,8.294,0.36,11.32c11.04,10.32,8,15.52,0.8,25.92    c-7.2,10.4-15.2,23.36-1.28,39.52c2.791,3.425,7.83,3.939,11.255,1.148s3.939-7.83,1.148-11.255    c-0.104-0.128-0.212-0.252-0.323-0.373c-5.76-6.64-3.76-10.4,2.64-20.24C273.12,64.227,284.32,47.187,263.44,27.667z" data-original="#000000" class="active-path" data-old_color="#000000" fill="#FFFFFF"/>
	</g>
</g></g> </svg>
