<?xml version="1.0"?>
<svg xmlns="http://www.w3.org/2000/svg" id="Out_line" data-name="Out line" viewBox="0 0 512 512" width="512px" height="512px"><g><path d="M493.65674,122.34326l-48-48A7.99614,7.99614,0,0,0,440,72.00391V72H168a7.81124,7.81124,0,0,0-7.67682,5.80664l-.01556-.00439-6.85694,24,15.38477,4.3955,3.12189-10.927,6.38592,6.386,11.31348-11.31348L187.31348,88H429.394l-9.14288,32H312v16H415.67969L368.30762,301.80225a7.99986,7.99986,0,0,0,2.03564,7.85449L404.68652,344H24a7.99977,7.99977,0,0,0-8,8v80a7.99977,7.99977,0,0,0,8,8H424a7.99977,7.99977,0,0,0,8-8V353.12109l63.69238-222.92334A7.99986,7.99986,0,0,0,493.65674,122.34326ZM32,360H288v64H32Zm384,64H304V360H416Zm4.043-87.271-35.05762-35.05712L443.957,95.271l35.05762,35.05712Z" data-original="#000000" class="active-path" data-old_color="#000000" fill="#FFFFFF"/><path d="M344,272c0-74.99072-61.00928-136-136-136S72,197.00928,72,272a134.705,134.705,0,0,0,13.67627,59.50439l14.38281-7.00878A118.84085,118.84085,0,0,1,88,272a120,120,0,0,1,240,0,118.84085,118.84085,0,0,1-12.05908,52.49561l14.38281,7.00878A134.705,134.705,0,0,0,344,272Z" data-original="#000000" class="active-path" data-old_color="#000000" fill="#FFFFFF"/><path d="M74.085,325.05127A143.297,143.297,0,0,1,64,272c0-79.40186,64.59814-144,144-144s144,64.59814,144,144a143.297,143.297,0,0,1-10.085,53.05127l14.87305,5.89746A159.21753,159.21753,0,0,0,368,272c0-88.22412-71.77588-160-160-160S48,183.77588,48,272a159.21753,159.21753,0,0,0,11.21191,58.94873Z" data-original="#000000" class="active-path" data-old_color="#000000" fill="#FFFFFF"/><path d="M176,224V192a7.99977,7.99977,0,0,0-8-8,64.0727,64.0727,0,0,0-64,64,7.99977,7.99977,0,0,0,8,8h32a7.99977,7.99977,0,0,0,8-8,16.01833,16.01833,0,0,1,16-16A7.99977,7.99977,0,0,0,176,224Zm-16-6.98779A32.12163,32.12163,0,0,0,137.01221,240H120.6665A48.12616,48.12616,0,0,1,160,200.6665Z" data-original="#000000" class="active-path" data-old_color="#000000" fill="#FFFFFF"/><path d="M320,264a64.0727,64.0727,0,0,0-64-64,7.99977,7.99977,0,0,0-8,8v32a7.99977,7.99977,0,0,0,8,8,16.01833,16.01833,0,0,1,16,16,7.99977,7.99977,0,0,0,8,8h32A7.99977,7.99977,0,0,0,320,264Zm-33.01221-8A32.12163,32.12163,0,0,0,264,233.01221V216.6665A48.12616,48.12616,0,0,1,303.3335,256Z" data-original="#000000" class="active-path" data-old_color="#000000" fill="#FFFFFF"/><path d="M232,328V312a7.99977,7.99977,0,0,0-8-8,63.50683,63.50683,0,0,0-45.71631,19.249l11.43262,11.19336A47.6413,47.6413,0,0,1,216,320.66064V328Z" data-original="#000000" class="active-path" data-old_color="#000000" fill="#FFFFFF"/><path d="M295.84961,333.33594a32,32,0,1,0-47.69922,0l11.92188-10.6709a16,16,0,1,1,23.85546,0Z" data-original="#000000" class="active-path" data-old_color="#000000" fill="#FFFFFF"/><path d="M240,192a24,24,0,1,0-24,24A24.02687,24.02687,0,0,0,240,192Zm-24,8a8,8,0,1,1,8-8A8.00917,8.00917,0,0,1,216,200Z" data-original="#000000" class="active-path" data-old_color="#000000" fill="#FFFFFF"/><path d="M208,240a24,24,0,1,0,24,24A24.02687,24.02687,0,0,0,208,240Zm0,32a8,8,0,1,1,8-8A8.00917,8.00917,0,0,1,208,272Z" data-original="#000000" class="active-path" data-old_color="#000000" fill="#FFFFFF"/><path d="M136,272a24,24,0,1,0,24,24A24.02687,24.02687,0,0,0,136,272Zm0,32a8,8,0,1,1,8-8A8.00917,8.00917,0,0,1,136,304Z" data-original="#000000" class="active-path" data-old_color="#000000" fill="#FFFFFF"/></g> </svg>
